<svg width="769" height="323" viewBox="0 0 769 323" fill="none" xmlns="http://www.w3.org/2000/svg">
<mask id="mask0_246_265" style="mask-type:luminance" maskUnits="userSpaceOnUse" x="0" y="0" width="769" height="323">
<path d="M769 0H0V323H769V0Z" fill="white"/>
</mask>
<g mask="url(#mask0_246_265)">
<path d="M769 0H0V323H769V0Z" fill="#FAFAFA"/>
<path d="M0 6.72281e-05L769 0" stroke="#E3E8EE" stroke-width="2" stroke-linecap="round" stroke-linejoin="round" stroke-dasharray="0.01 16"/>
<path d="M0 13.4586L769 13.4585" stroke="#E3E8EE" stroke-width="2" stroke-linecap="round" stroke-linejoin="round" stroke-dasharray="0.01 16"/>
<path d="M0 26.9166L769 26.9165" stroke="#E3E8EE" stroke-width="2" stroke-linecap="round" stroke-linejoin="round" stroke-dasharray="0.01 16"/>
<path d="M0 40.3751L769 40.375" stroke="#E3E8EE" stroke-width="2" stroke-linecap="round" stroke-linejoin="round" stroke-dasharray="0.01 16"/>
<path d="M0 53.8336L769 53.8335" stroke="#E3E8EE" stroke-width="2" stroke-linecap="round" stroke-linejoin="round" stroke-dasharray="0.01 16"/>
<path d="M0 67.2916L769 67.2915" stroke="#E3E8EE" stroke-width="2" stroke-linecap="round" stroke-linejoin="round" stroke-dasharray="0.01 16"/>
<path d="M0 80.7501L769 80.75" stroke="#E3E8EE" stroke-width="2" stroke-linecap="round" stroke-linejoin="round" stroke-dasharray="0.01 16"/>
<path d="M0 94.2085H769" stroke="#E3E8EE" stroke-width="2" stroke-linecap="round" stroke-linejoin="round" stroke-dasharray="0.01 16"/>
<path d="M0 107.667H769" stroke="#E3E8EE" stroke-width="2" stroke-linecap="round" stroke-linejoin="round" stroke-dasharray="0.01 16"/>
<path d="M0 121.125H769" stroke="#E3E8EE" stroke-width="2" stroke-linecap="round" stroke-linejoin="round" stroke-dasharray="0.01 16"/>
<path d="M0 134.583H769" stroke="#E3E8EE" stroke-width="2" stroke-linecap="round" stroke-linejoin="round" stroke-dasharray="0.01 16"/>
<path d="M0 148.042H769" stroke="#E3E8EE" stroke-width="2" stroke-linecap="round" stroke-linejoin="round" stroke-dasharray="0.01 16"/>
<path d="M0 161.5H769" stroke="#E3E8EE" stroke-width="2" stroke-linecap="round" stroke-linejoin="round" stroke-dasharray="0.01 16"/>
<path d="M0 174.958H769" stroke="#E3E8EE" stroke-width="2" stroke-linecap="round" stroke-linejoin="round" stroke-dasharray="0.01 16"/>
<path d="M0 188.417H769" stroke="#E3E8EE" stroke-width="2" stroke-linecap="round" stroke-linejoin="round" stroke-dasharray="0.01 16"/>
<path d="M0 201.875H769" stroke="#E3E8EE" stroke-width="2" stroke-linecap="round" stroke-linejoin="round" stroke-dasharray="0.01 16"/>
<path d="M0 215.333H769" stroke="#E3E8EE" stroke-width="2" stroke-linecap="round" stroke-linejoin="round" stroke-dasharray="0.01 16"/>
<path d="M0 228.792H769" stroke="#E3E8EE" stroke-width="2" stroke-linecap="round" stroke-linejoin="round" stroke-dasharray="0.01 16"/>
<path d="M0 242.25H769" stroke="#E3E8EE" stroke-width="2" stroke-linecap="round" stroke-linejoin="round" stroke-dasharray="0.01 16"/>
<path d="M0 255.708H769" stroke="#E3E8EE" stroke-width="2" stroke-linecap="round" stroke-linejoin="round" stroke-dasharray="0.01 16"/>
<path d="M0 269.167H769" stroke="#E3E8EE" stroke-width="2" stroke-linecap="round" stroke-linejoin="round" stroke-dasharray="0.01 16"/>
<path d="M0 282.625H769" stroke="#E3E8EE" stroke-width="2" stroke-linecap="round" stroke-linejoin="round" stroke-dasharray="0.01 16"/>
<path d="M0 296.083H769" stroke="#E3E8EE" stroke-width="2" stroke-linecap="round" stroke-linejoin="round" stroke-dasharray="0.01 16"/>
<path d="M0 309.542H769" stroke="#E3E8EE" stroke-width="2" stroke-linecap="round" stroke-linejoin="round" stroke-dasharray="0.01 16"/>
<path d="M0 323H769" stroke="#E3E8EE" stroke-width="2" stroke-linecap="round" stroke-linejoin="round" stroke-dasharray="0.01 16"/>
<path d="M768.5 0.42041H0.5V322.579H768.5V0.42041Z" stroke="#FAFAFA"/>
</g>
<path d="M279.2 125.8H144.8C135.522 125.8 128 132.332 128 140.39V190.411C128 198.468 135.522 205 144.8 205H279.2C288.478 205 296 198.468 296 190.411V140.39C296 132.332 288.478 125.8 279.2 125.8Z" fill="white"/>
<path d="M279.201 121.6H144.801C139.83 121.6 135.801 125.63 135.801 130.6V188.2C135.801 193.171 139.83 197.2 144.801 197.2H279.201C284.171 197.2 288.201 193.171 288.201 188.2V130.6C288.201 125.63 284.171 121.6 279.201 121.6Z" stroke="#E3E8EE" stroke-width="1.2"/>
<path d="M279.2 125.8H144.8C135.522 125.8 128 132.332 128 140.39V190.411C128 198.468 135.522 205 144.8 205H279.2C288.478 205 296 198.468 296 190.411V140.39C296 132.332 288.478 125.8 279.2 125.8Z" stroke="#F7FAFC" stroke-width="14.4"/>
<path d="M195.941 168.86C194.961 168.86 194.115 168.645 193.403 168.213C192.69 167.782 192.142 167.168 191.757 166.371C191.373 165.574 191.181 164.627 191.181 163.531V163.517C191.181 162.42 191.373 161.473 191.757 160.676C192.142 159.879 192.688 159.267 193.396 158.841C194.108 158.409 194.957 158.194 195.941 158.194C196.743 158.194 197.462 158.351 198.1 158.665C198.742 158.979 199.26 159.413 199.654 159.966C200.047 160.519 200.277 161.152 200.343 161.864V161.956H198.282L198.275 161.906C198.205 161.527 198.062 161.194 197.846 160.908C197.631 160.617 197.359 160.392 197.031 160.233C196.707 160.074 196.344 159.994 195.941 159.994C195.411 159.994 194.952 160.137 194.563 160.423C194.174 160.704 193.874 161.109 193.663 161.639C193.457 162.164 193.354 162.79 193.354 163.517V163.531C193.354 164.252 193.457 164.878 193.663 165.408C193.874 165.938 194.174 166.345 194.563 166.631C194.952 166.917 195.414 167.06 195.948 167.06C196.356 167.06 196.719 166.988 197.038 166.842C197.361 166.692 197.629 166.484 197.839 166.217C198.055 165.945 198.198 165.628 198.268 165.267L198.282 165.204H200.35V165.288C200.275 165.996 200.043 166.617 199.654 167.152C199.264 167.686 198.754 168.106 198.121 168.41C197.488 168.71 196.761 168.86 195.941 168.86ZM202.171 168.6V157.899H204.224V168.6H202.171ZM206.361 168.6V160.859H208.414V168.6H206.361ZM207.395 159.67C207.081 159.67 206.809 159.56 206.579 159.34C206.35 159.115 206.235 158.845 206.235 158.531C206.235 158.213 206.35 157.943 206.579 157.723C206.809 157.498 207.081 157.385 207.395 157.385C207.714 157.385 207.986 157.498 208.211 157.723C208.436 157.943 208.548 158.213 208.548 158.531C208.548 158.845 208.436 159.115 208.211 159.34C207.986 159.56 207.714 159.67 207.395 159.67ZM213.885 168.762C213.102 168.762 212.427 168.6 211.86 168.277C211.297 167.949 210.864 167.484 210.559 166.884C210.254 166.284 210.102 165.57 210.102 164.74V164.733C210.102 163.913 210.252 163.2 210.552 162.595C210.857 161.991 211.286 161.522 211.839 161.189C212.396 160.856 213.05 160.69 213.8 160.69C214.555 160.69 215.207 160.852 215.755 161.175C216.304 161.499 216.725 161.951 217.021 162.532C217.316 163.113 217.464 163.795 217.464 164.578V165.218H211.129V163.931H216.479L215.516 165.148V164.325C215.516 163.861 215.443 163.474 215.298 163.165C215.157 162.856 214.961 162.624 214.707 162.469C214.459 162.309 214.168 162.23 213.836 162.23C213.507 162.23 213.214 162.312 212.957 162.476C212.704 162.635 212.502 162.872 212.352 163.186C212.207 163.495 212.134 163.875 212.134 164.325V165.155C212.134 165.591 212.207 165.963 212.352 166.273C212.497 166.582 212.704 166.819 212.971 166.983C213.238 167.147 213.557 167.229 213.927 167.229C214.227 167.229 214.482 167.184 214.693 167.095C214.904 167.006 215.073 166.903 215.2 166.786C215.331 166.664 215.42 166.554 215.467 166.456L215.488 166.413H217.4L217.386 166.484C217.325 166.727 217.215 166.983 217.056 167.25C216.896 167.513 216.676 167.759 216.395 167.988C216.118 168.218 215.771 168.406 215.354 168.551C214.942 168.692 214.452 168.762 213.885 168.762ZM219.144 168.6V160.859H221.197V162.054H221.324C221.502 161.632 221.779 161.299 222.154 161.056C222.529 160.812 222.993 160.69 223.546 160.69C224.408 160.69 225.064 160.943 225.514 161.449C225.969 161.951 226.196 162.666 226.196 163.594V168.6H224.143V164.058C224.143 163.509 224.029 163.095 223.799 162.813C223.569 162.532 223.211 162.392 222.723 162.392C222.409 162.392 222.137 162.464 221.907 162.609C221.682 162.75 221.507 162.949 221.38 163.207C221.258 163.465 221.197 163.77 221.197 164.121V168.6H219.144ZM231.4 168.628C230.462 168.628 229.787 168.464 229.375 168.136C228.962 167.803 228.756 167.262 228.756 166.512V162.406H227.561V160.859H228.756V159.009H230.83V160.859H232.426V162.406H230.83V166.041C230.83 166.388 230.907 166.643 231.062 166.807C231.221 166.967 231.475 167.046 231.821 167.046C231.953 167.046 232.061 167.044 232.145 167.039C232.234 167.03 232.328 167.02 232.426 167.011V168.537C232.3 168.56 232.147 168.581 231.969 168.6C231.791 168.619 231.601 168.628 231.4 168.628Z" fill="#3C4257"/>
<path d="M623.602 126.4H489.202C479.924 126.4 472.402 132.932 472.402 140.99V191.011C472.402 199.068 479.924 205.6 489.202 205.6H623.602C632.881 205.6 640.402 199.068 640.402 191.011V140.99C640.402 132.932 632.881 126.4 623.602 126.4Z" fill="white"/>
<path d="M623.603 122.2H489.203C484.233 122.2 480.203 126.23 480.203 131.2V188.8C480.203 193.771 484.233 197.8 489.203 197.8H623.603C628.574 197.8 632.603 193.771 632.603 188.8V131.2C632.603 126.23 628.574 122.2 623.603 122.2Z" stroke="#E3E8EE" stroke-width="1.2"/>
<path d="M623.602 126.4H489.202C479.924 126.4 472.402 132.932 472.402 140.99V191.011C472.402 199.068 479.924 205.6 489.202 205.6H623.602C632.881 205.6 640.402 199.068 640.402 191.011V140.99C640.402 132.932 632.881 126.4 623.602 126.4Z" stroke="#F7FAFC" stroke-width="14.4"/>
<path d="M537.261 170.06C536.455 170.06 535.754 169.939 535.159 169.695C534.563 169.451 534.095 169.109 533.752 168.668C533.415 168.223 533.225 167.7 533.183 167.1L533.176 166.988H535.222L535.229 167.058C535.257 167.311 535.36 167.534 535.538 167.726C535.721 167.914 535.965 168.061 536.27 168.169C536.574 168.277 536.923 168.331 537.317 168.331C537.697 168.331 538.03 168.275 538.316 168.162C538.602 168.05 538.824 167.895 538.984 167.698C539.148 167.496 539.23 167.267 539.23 167.009V167.002C539.23 166.669 539.094 166.402 538.822 166.2C538.555 165.999 538.105 165.832 537.472 165.701L536.403 165.483C535.348 165.267 534.582 164.914 534.104 164.421C533.626 163.929 533.387 163.299 533.387 162.53V162.523C533.387 161.895 533.553 161.346 533.886 160.878C534.219 160.409 534.676 160.046 535.257 159.788C535.838 159.525 536.504 159.394 537.254 159.394C538.041 159.394 538.716 159.523 539.279 159.781C539.846 160.034 540.289 160.383 540.608 160.828C540.927 161.269 541.107 161.773 541.149 162.34L541.156 162.432H539.159L539.145 162.347C539.103 162.103 539 161.89 538.836 161.707C538.677 161.525 538.461 161.382 538.189 161.278C537.922 161.171 537.61 161.117 537.254 161.117C536.907 161.117 536.602 161.168 536.34 161.271C536.077 161.375 535.873 161.52 535.728 161.707C535.583 161.89 535.51 162.108 535.51 162.361V162.368C535.51 162.696 535.641 162.966 535.904 163.177C536.171 163.383 536.602 163.547 537.198 163.669L538.273 163.887C538.991 164.032 539.574 164.229 540.024 164.478C540.479 164.726 540.814 165.038 541.03 165.413C541.245 165.788 541.353 166.24 541.353 166.77V166.777C541.353 167.447 541.187 168.028 540.854 168.521C540.526 169.008 540.055 169.388 539.441 169.66C538.831 169.927 538.105 170.06 537.261 170.06ZM546.563 169.962C545.78 169.962 545.105 169.8 544.538 169.477C543.976 169.149 543.542 168.685 543.238 168.085C542.933 167.485 542.78 166.77 542.78 165.94V165.933C542.78 165.113 542.93 164.4 543.23 163.796C543.535 163.191 543.964 162.722 544.517 162.389C545.075 162.057 545.729 161.89 546.479 161.89C547.234 161.89 547.885 162.052 548.434 162.375C548.982 162.699 549.404 163.151 549.699 163.732C549.995 164.314 550.142 164.996 550.142 165.778V166.418H543.807V165.132H549.158L548.195 166.348V165.525C548.195 165.061 548.122 164.675 547.977 164.365C547.836 164.056 547.639 163.824 547.386 163.669C547.138 163.51 546.847 163.43 546.514 163.43C546.186 163.43 545.893 163.512 545.635 163.676C545.382 163.835 545.18 164.072 545.03 164.386C544.885 164.696 544.813 165.075 544.813 165.525V166.355C544.813 166.791 544.885 167.164 545.03 167.473C545.176 167.782 545.382 168.019 545.649 168.183C545.916 168.347 546.235 168.429 546.605 168.429C546.905 168.429 547.161 168.385 547.372 168.296C547.583 168.207 547.752 168.103 547.878 167.986C548.009 167.864 548.098 167.754 548.145 167.656L548.166 167.614H550.079L550.065 167.684C550.004 167.928 549.894 168.183 549.734 168.45C549.575 168.713 549.355 168.959 549.073 169.189C548.797 169.418 548.45 169.606 548.033 169.751C547.62 169.892 547.13 169.962 546.563 169.962ZM551.823 169.8V162.059H553.876V163.261H554.002C554.129 162.839 554.361 162.514 554.698 162.284C555.036 162.05 555.455 161.932 555.957 161.932C556.098 161.932 556.234 161.942 556.365 161.96C556.501 161.979 556.62 162.003 556.723 162.031V163.824C556.569 163.786 556.412 163.758 556.252 163.739C556.098 163.716 555.941 163.704 555.781 163.704C555.392 163.704 555.055 163.777 554.769 163.922C554.483 164.063 554.263 164.264 554.108 164.527C553.953 164.789 553.876 165.103 553.876 165.469V169.8H551.823ZM560.26 169.8L557.567 162.059H559.768L561.371 167.881H561.498L563.087 162.059H565.245L562.566 169.8H560.26ZM569.71 169.962C568.927 169.962 568.252 169.8 567.685 169.477C567.123 169.149 566.689 168.685 566.384 168.085C566.08 167.485 565.927 166.77 565.927 165.94V165.933C565.927 165.113 566.077 164.4 566.377 163.796C566.682 163.191 567.111 162.722 567.664 162.389C568.222 162.057 568.876 161.89 569.626 161.89C570.38 161.89 571.032 162.052 571.58 162.375C572.129 162.699 572.551 163.151 572.846 163.732C573.141 164.314 573.289 164.996 573.289 165.778V166.418H566.954V165.132H572.305L571.341 166.348V165.525C571.341 165.061 571.269 164.675 571.123 164.365C570.983 164.056 570.786 163.824 570.533 163.669C570.284 163.51 569.994 163.43 569.661 163.43C569.333 163.43 569.04 163.512 568.782 163.676C568.529 163.835 568.327 164.072 568.177 164.386C568.032 164.696 567.959 165.075 567.959 165.525V166.355C567.959 166.791 568.032 167.164 568.177 167.473C568.323 167.782 568.529 168.019 568.796 168.183C569.063 168.347 569.382 168.429 569.752 168.429C570.052 168.429 570.308 168.385 570.519 168.296C570.73 168.207 570.898 168.103 571.025 167.986C571.156 167.864 571.245 167.754 571.292 167.656L571.313 167.614H573.226L573.212 167.684C573.151 167.928 573.041 168.183 572.881 168.45C572.722 168.713 572.502 168.959 572.22 169.189C571.944 169.418 571.597 169.606 571.18 169.751C570.767 169.892 570.277 169.962 569.71 169.962ZM574.97 169.8V162.059H577.023V163.261H577.149C577.276 162.839 577.508 162.514 577.845 162.284C578.183 162.05 578.602 161.932 579.104 161.932C579.245 161.932 579.38 161.942 579.512 161.96C579.648 161.979 579.767 162.003 579.87 162.031V163.824C579.716 163.786 579.559 163.758 579.399 163.739C579.245 163.716 579.088 163.704 578.928 163.704C578.539 163.704 578.202 163.777 577.916 163.922C577.63 164.063 577.409 164.264 577.255 164.527C577.1 164.789 577.023 165.103 577.023 165.469V169.8H574.97Z" fill="#3C4257"/>
<path d="M207.203 226.3C207.203 225.804 207.606 225.4 208.103 225.4C208.6 225.4 209.003 225.804 209.003 226.3H207.203ZM338.403 260.828C338.755 261.18 338.755 261.748 338.403 262.1L332.676 267.828C332.324 268.179 331.755 268.179 331.403 267.828C331.052 267.476 331.052 266.907 331.403 266.556L336.494 261.464L331.403 256.372C331.052 256.021 331.052 255.452 331.403 255.1C331.755 254.749 332.324 254.749 332.676 255.1L338.403 260.828ZM209.003 226.3V256.6H207.203V226.3H209.003ZM212.903 260.5L337.767 260.564V262.364L212.903 262.3V260.5ZM209.003 256.6C209.003 258.754 210.749 260.5 212.903 260.5V262.3C209.755 262.3 207.203 259.748 207.203 256.6H209.003Z" fill="#8792A2"/>
<path d="M564.684 104.2C564.684 104.697 564.281 105.1 563.784 105.1C563.287 105.1 562.884 104.697 562.884 104.2H564.684ZM433.483 62.5322C433.132 62.1806 433.132 61.6118 433.483 61.2602L439.211 55.5326C439.562 55.181 440.132 55.181 440.484 55.5326C440.835 55.8842 440.835 56.453 440.484 56.8046L435.392 61.8962L440.484 66.9878C440.835 67.3394 440.835 67.9082 440.484 68.2598C440.132 68.6114 439.562 68.6114 439.211 68.2598L433.483 62.5322ZM562.884 104.2V66.7599H564.684V104.2H562.884ZM558.984 62.8599L434.12 62.7962V60.9962L558.984 61.0599V62.8599ZM562.884 66.7599C562.884 64.6059 561.137 62.8599 558.984 62.8599V61.0599C562.132 61.0599 564.684 63.6123 564.684 66.7599H562.884Z" fill="#8792A2"/>
<path d="M338.602 61.0004C339.099 61.0004 339.502 61.4063 339.502 61.9065C339.502 62.4067 339.099 62.8126 338.602 62.8126V61.0004ZM209.667 105.147C209.315 105.501 208.746 105.501 208.395 105.147L202.666 99.3805C202.314 99.0266 202.314 98.4539 202.666 98.0999C203.017 97.7459 203.586 97.7459 203.938 98.0999L209.031 103.225L214.124 98.0999C214.475 97.7459 215.044 97.7459 215.396 98.0999C215.748 98.4539 215.748 99.0266 215.396 99.3805L209.667 105.147ZM338.602 62.8126L213.832 62.8248V61.0126L338.602 61.0004V62.8126ZM209.931 66.7514L209.931 104.507H208.131L208.13 66.7514H209.931ZM213.832 62.8248C211.677 62.8248 209.931 64.5827 209.931 66.7514H208.13C208.13 63.5824 210.683 61.0126 213.832 61.0126V62.8248Z" fill="#8792A2"/>
<path d="M434.902 262.372C434.405 262.372 434.002 261.966 434.002 261.466C434.002 260.966 434.405 260.56 434.902 260.56V262.372ZM563.8 226C564.152 225.646 564.721 225.646 565.073 226L570.802 231.767C571.154 232.121 571.154 232.694 570.802 233.048C570.45 233.401 569.881 233.401 569.53 233.048L564.437 227.922L559.344 233.048C558.992 233.401 558.423 233.401 558.071 233.048C557.72 232.694 557.72 232.121 558.071 231.767L563.8 226ZM434.902 260.56L559.672 260.548V262.36L434.902 262.372V260.56ZM563.573 256.621L563.536 226.641H565.337L565.374 256.621H563.573ZM559.672 260.548C561.827 260.548 563.573 258.79 563.573 256.621H565.374C565.374 259.79 562.821 262.36 559.672 262.36V260.548Z" fill="#8792A2"/>
<path d="M425.001 37H347.001C342.693 37 339.201 40.9587 339.201 45.8421V76.1579C339.201 81.0413 342.693 85 347.001 85H425.001C429.309 85 432.801 81.0413 432.801 76.1579V45.8421C432.801 40.9587 429.309 37 425.001 37Z" fill="#FAFAFA"/>
<path d="M359.138 58.3818V61.5166H360.662C361.216 61.5166 361.644 61.3818 361.945 61.1123C362.246 60.8389 362.396 60.4521 362.396 59.9521C362.396 59.4561 362.248 59.0713 361.951 58.7979C361.654 58.5205 361.238 58.3818 360.703 58.3818H359.138ZM360.867 62.501H359.138V65.7998H357.925V57.3447H360.832C361.695 57.3447 362.377 57.5752 362.877 58.0361C363.377 58.4971 363.627 59.1279 363.627 59.9287C363.627 60.4795 363.486 60.9678 363.205 61.3936C362.923 61.8154 362.546 62.1084 362.074 62.2725L363.785 65.7998H362.414L360.867 62.501ZM368.127 60.251C367.63 60.251 367.242 60.4131 366.961 60.7373C366.679 61.0576 366.539 61.5029 366.539 62.0732H369.668C369.668 61.5029 369.531 61.0576 369.257 60.7373C368.988 60.4131 368.611 60.251 368.127 60.251ZM369.679 64.1123H370.804C370.718 64.6475 370.435 65.083 369.955 65.4189C369.474 65.7549 368.89 65.9229 368.203 65.9229C367.308 65.9229 366.615 65.6729 366.123 65.1729C365.63 64.6689 365.384 63.9619 365.384 63.0518V62.0791C365.384 61.2393 365.636 60.5654 366.14 60.0576C366.644 59.5459 367.31 59.29 368.138 59.29C368.974 59.29 369.63 59.5498 370.107 60.0693C370.584 60.5889 370.822 61.3018 370.822 62.208V62.8994H366.539V63.1865C366.539 63.7256 366.689 64.1553 366.99 64.4756C367.291 64.7959 367.693 64.9561 368.197 64.9561C368.576 64.9561 368.898 64.8818 369.164 64.7334C369.429 64.5811 369.601 64.374 369.679 64.1123ZM373.072 61.1768C373.072 60.6064 373.293 60.1494 373.734 59.8057C374.175 59.458 374.761 59.2842 375.492 59.2842C376.191 59.2842 376.755 59.4424 377.185 59.7588C377.615 60.0713 377.855 60.5049 377.906 61.0596H376.781C376.726 60.7979 376.582 60.5928 376.347 60.4443C376.117 60.292 375.826 60.2158 375.474 60.2158C375.099 60.2158 374.798 60.2959 374.572 60.4561C374.349 60.6162 374.238 60.8291 374.238 61.0947C374.238 61.3213 374.32 61.5029 374.484 61.6396C374.648 61.7764 374.918 61.8857 375.293 61.9678L376.218 62.1729C376.851 62.3135 377.314 62.5244 377.607 62.8057C377.9 63.0869 378.046 63.4619 378.046 63.9307C378.046 64.5361 377.814 65.0186 377.349 65.3779C376.888 65.7373 376.267 65.917 375.486 65.917C374.732 65.917 374.125 65.7588 373.664 65.4424C373.207 65.1221 372.953 64.6807 372.902 64.1182H374.086C374.148 64.3916 374.304 64.6025 374.554 64.751C374.808 64.8994 375.129 64.9736 375.515 64.9736C375.918 64.9736 376.238 64.8916 376.476 64.7275C376.714 64.5596 376.834 64.3369 376.834 64.0596C376.834 63.8252 376.754 63.6416 376.593 63.5088C376.433 63.3721 376.16 63.2607 375.773 63.1748L374.818 62.958C373.654 62.6963 373.072 62.1025 373.072 61.1768ZM383.39 59.3135C384.125 59.3135 384.709 59.5576 385.142 60.0459C385.58 60.5342 385.798 61.1943 385.798 62.0264V63.1924C385.798 64.0244 385.58 64.6846 385.142 65.1729C384.709 65.6611 384.125 65.9053 383.39 65.9053C382.929 65.9053 382.537 65.8096 382.213 65.6182C381.892 65.4229 381.668 65.1455 381.539 64.7861H381.427V67.9443H380.22V59.4131H381.398V60.4268H381.509C381.658 60.0635 381.892 59.7881 382.213 59.6006C382.533 59.4092 382.925 59.3135 383.39 59.3135ZM382.998 60.3564C382.509 60.3564 382.121 60.5186 381.832 60.8428C381.543 61.1631 381.398 61.5967 381.398 62.1436V63.0986C381.398 63.6494 381.543 64.0869 381.832 64.4111C382.121 64.7314 382.509 64.8916 382.998 64.8916C383.49 64.8916 383.88 64.7295 384.17 64.4053C384.463 64.0811 384.609 63.6455 384.609 63.0986V62.1436C384.609 61.5967 384.463 61.1631 384.17 60.8428C383.88 60.5186 383.49 60.3564 382.998 60.3564ZM392.361 65.1553C391.853 65.667 391.17 65.9229 390.31 65.9229C389.451 65.9229 388.765 65.667 388.254 65.1553C387.746 64.6436 387.492 63.9561 387.492 63.0928V62.126C387.492 61.2588 387.746 60.5713 388.254 60.0635C388.761 59.5518 389.447 59.2959 390.31 59.2959C391.173 59.2959 391.859 59.5518 392.367 60.0635C392.875 60.5713 393.129 61.2588 393.129 62.126V63.0928C393.129 63.9561 392.873 64.6436 392.361 65.1553ZM391.523 60.8076C391.226 60.4639 390.822 60.292 390.31 60.292C389.798 60.292 389.394 60.4639 389.097 60.8076C388.8 61.1514 388.652 61.6182 388.652 62.208V63.0107C388.652 63.6006 388.8 64.0674 389.097 64.4111C389.394 64.7549 389.798 64.9268 390.31 64.9268C390.822 64.9268 391.226 64.7549 391.523 64.4111C391.82 64.0674 391.968 63.6006 391.968 63.0107V62.208C391.968 61.6182 391.82 61.1514 391.523 60.8076ZM395.045 65.7998V59.4131H396.181V60.5264H396.263C396.431 60.1318 396.689 59.8271 397.037 59.6123C397.384 59.3975 397.796 59.29 398.273 59.29C398.968 59.29 399.498 59.4932 399.861 59.8994C400.228 60.3018 400.412 60.8877 400.412 61.6572V65.7998H399.234V61.9502C399.234 61.4033 399.121 60.999 398.894 60.7373C398.671 60.4717 398.324 60.3389 397.851 60.3389C397.363 60.3389 396.968 60.4971 396.668 60.8135C396.367 61.126 396.216 61.54 396.216 62.0557V65.7998H395.045ZM402.744 61.1768C402.744 60.6064 402.964 60.1494 403.406 59.8057C403.847 59.458 404.433 59.2842 405.164 59.2842C405.863 59.2842 406.427 59.4424 406.857 59.7588C407.287 60.0713 407.527 60.5049 407.578 61.0596H406.453C406.398 60.7979 406.254 60.5928 406.019 60.4443C405.789 60.292 405.498 60.2158 405.146 60.2158C404.771 60.2158 404.47 60.2959 404.244 60.4561C404.021 60.6162 403.91 60.8291 403.91 61.0947C403.91 61.3213 403.992 61.5029 404.156 61.6396C404.32 61.7764 404.589 61.8857 404.964 61.9678L405.89 62.1729C406.523 62.3135 406.986 62.5244 407.279 62.8057C407.572 63.0869 407.718 63.4619 407.718 63.9307C407.718 64.5361 407.486 65.0186 407.021 65.3779C406.56 65.7373 405.939 65.917 405.158 65.917C404.404 65.917 403.796 65.7588 403.336 65.4424C402.879 65.1221 402.625 64.6807 402.574 64.1182H403.757C403.82 64.3916 403.976 64.6025 404.226 64.751C404.48 64.8994 404.8 64.9736 405.187 64.9736C405.589 64.9736 405.91 64.8916 406.148 64.7275C406.386 64.5596 406.505 64.3369 406.505 64.0596C406.505 63.8252 406.425 63.6416 406.265 63.5088C406.105 63.3721 405.832 63.2607 405.445 63.1748L404.49 62.958C403.326 62.6963 402.744 62.1025 402.744 61.1768ZM412.634 60.251C412.138 60.251 411.75 60.4131 411.468 60.7373C411.187 61.0576 411.046 61.5029 411.046 62.0732H414.175C414.175 61.5029 414.039 61.0576 413.765 60.7373C413.496 60.4131 413.119 60.251 412.634 60.251ZM414.187 64.1123H415.312C415.226 64.6475 414.943 65.083 414.463 65.4189C413.982 65.7549 413.398 65.9229 412.711 65.9229C411.816 65.9229 411.123 65.6729 410.63 65.1729C410.138 64.6689 409.892 63.9619 409.892 63.0518V62.0791C409.892 61.2393 410.144 60.5654 410.648 60.0576C411.152 59.5459 411.818 59.29 412.646 59.29C413.482 59.29 414.138 59.5498 414.615 60.0693C415.091 60.5889 415.33 61.3018 415.33 62.208V62.8994H411.046V63.1865C411.046 63.7256 411.197 64.1553 411.498 64.4756C411.798 64.7959 412.201 64.9561 412.705 64.9561C413.084 64.9561 413.406 64.8818 413.671 64.7334C413.937 64.5811 414.109 64.374 414.187 64.1123Z" fill="#3C4257"/>
<path d="M426.101 237.4H347.101C342.738 237.4 339.201 241.359 339.201 246.242V276.558C339.201 281.441 342.738 285.4 347.101 285.4H426.101C430.464 285.4 434.001 281.441 434.001 276.558V246.242C434.001 241.359 430.464 237.4 426.101 237.4Z" fill="#FAFAFA"/>
<path d="M362.847 258.782V261.917H364.371C364.925 261.917 365.353 261.782 365.654 261.512C365.955 261.239 366.105 260.852 366.105 260.352C366.105 259.856 365.957 259.471 365.66 259.198C365.363 258.92 364.947 258.782 364.412 258.782H362.847ZM364.576 262.901H362.847V266.2H361.634V257.745H364.541C365.404 257.745 366.086 257.975 366.586 258.436C367.086 258.897 367.336 259.528 367.336 260.329C367.336 260.879 367.195 261.368 366.914 261.793C366.632 262.215 366.255 262.508 365.783 262.672L367.494 266.2H366.123L364.576 262.901ZM371.836 260.651C371.339 260.651 370.951 260.813 370.67 261.137C370.388 261.458 370.248 261.903 370.248 262.473H373.377C373.377 261.903 373.24 261.458 372.966 261.137C372.697 260.813 372.32 260.651 371.836 260.651ZM373.388 264.512H374.513C374.427 265.047 374.144 265.483 373.664 265.819C373.183 266.155 372.599 266.323 371.912 266.323C371.017 266.323 370.324 266.073 369.832 265.573C369.339 265.069 369.093 264.362 369.093 263.452V262.479C369.093 261.639 369.345 260.965 369.849 260.458C370.353 259.946 371.019 259.69 371.847 259.69C372.683 259.69 373.339 259.95 373.816 260.469C374.293 260.989 374.531 261.702 374.531 262.608V263.299H370.248V263.586C370.248 264.125 370.398 264.555 370.699 264.875C371 265.196 371.402 265.356 371.906 265.356C372.285 265.356 372.607 265.282 372.873 265.133C373.138 264.981 373.31 264.774 373.388 264.512ZM380.677 263.499V262.543C380.677 261.997 380.533 261.563 380.244 261.243C379.955 260.918 379.566 260.756 379.078 260.756C378.586 260.756 378.193 260.918 377.9 261.243C377.611 261.563 377.466 261.997 377.466 262.543V263.499C377.466 264.045 377.611 264.481 377.9 264.805C378.193 265.129 378.586 265.292 379.078 265.292C379.566 265.292 379.955 265.131 380.244 264.811C380.533 264.487 380.677 264.049 380.677 263.499ZM376.277 263.592V262.426C376.277 261.594 376.494 260.934 376.927 260.446C377.365 259.958 377.951 259.713 378.685 259.713C379.15 259.713 379.543 259.809 379.863 260C380.183 260.188 380.418 260.463 380.566 260.827H380.677V259.813H381.855V268.344H380.648V265.186H380.537C380.408 265.545 380.181 265.823 379.857 266.018C379.537 266.209 379.146 266.305 378.685 266.305C377.951 266.305 377.365 266.061 376.927 265.573C376.494 265.084 376.277 264.424 376.277 263.592ZM389.285 259.813V266.2H388.148V265.092H388.066C387.898 265.487 387.64 265.792 387.293 266.006C386.945 266.217 386.533 266.323 386.056 266.323C385.361 266.323 384.83 266.122 384.463 265.719C384.099 265.313 383.918 264.725 383.918 263.956V259.813H385.095V263.668C385.095 264.215 385.207 264.62 385.429 264.881C385.656 265.143 386.005 265.274 386.478 265.274C386.966 265.274 387.361 265.118 387.662 264.805C387.963 264.489 388.113 264.073 388.113 263.557V259.813H389.285ZM394.089 260.651C393.593 260.651 393.205 260.813 392.923 261.137C392.642 261.458 392.502 261.903 392.502 262.473H395.63C395.63 261.903 395.494 261.458 395.22 261.137C394.951 260.813 394.574 260.651 394.089 260.651ZM395.642 264.512H396.767C396.681 265.047 396.398 265.483 395.918 265.819C395.437 266.155 394.853 266.323 394.166 266.323C393.271 266.323 392.578 266.073 392.086 265.573C391.593 265.069 391.347 264.362 391.347 263.452V262.479C391.347 261.639 391.599 260.965 392.103 260.458C392.607 259.946 393.273 259.69 394.101 259.69C394.937 259.69 395.593 259.95 396.07 260.469C396.546 260.989 396.785 261.702 396.785 262.608V263.299H392.502V263.586C392.502 264.125 392.652 264.555 392.953 264.875C393.254 265.196 393.656 265.356 394.16 265.356C394.539 265.356 394.861 265.282 395.127 265.133C395.392 264.981 395.564 264.774 395.642 264.512ZM399.035 261.577C399.035 261.006 399.255 260.549 399.697 260.206C400.138 259.858 400.724 259.684 401.455 259.684C402.154 259.684 402.718 259.842 403.148 260.159C403.578 260.471 403.818 260.905 403.869 261.459H402.744C402.689 261.198 402.545 260.993 402.31 260.844C402.08 260.692 401.789 260.616 401.437 260.616C401.062 260.616 400.761 260.696 400.535 260.856C400.312 261.016 400.201 261.229 400.201 261.495C400.201 261.721 400.283 261.903 400.447 262.04C400.611 262.176 400.88 262.286 401.255 262.368L402.181 262.573C402.814 262.713 403.277 262.924 403.57 263.206C403.863 263.487 404.009 263.862 404.009 264.331C404.009 264.936 403.777 265.418 403.312 265.778C402.851 266.137 402.23 266.317 401.449 266.317C400.695 266.317 400.088 266.159 399.627 265.842C399.17 265.522 398.916 265.081 398.865 264.518H400.048C400.111 264.792 400.267 265.002 400.517 265.151C400.771 265.299 401.091 265.374 401.478 265.374C401.88 265.374 402.201 265.292 402.439 265.127C402.677 264.959 402.796 264.737 402.796 264.459C402.796 264.225 402.716 264.042 402.556 263.909C402.396 263.772 402.123 263.661 401.736 263.575L400.781 263.358C399.617 263.096 399.035 262.502 399.035 261.577ZM407.695 258.067H408.855V259.848H411.38V260.815H408.873V264.266C408.873 264.583 408.98 264.825 409.195 264.993C409.41 265.161 409.72 265.245 410.127 265.245C410.783 265.245 411.189 265.235 411.345 265.215V266.176C411.173 266.208 410.74 266.223 410.045 266.223C409.224 266.223 408.627 266.069 408.252 265.76C407.88 265.448 407.695 264.95 407.695 264.266V260.815H406.007V259.848H407.695V258.067Z" fill="#3C4257"/>
</svg>
