<svg version="1.1" xmlns="http://www.w3.org/2000/svg" viewBox="0 0 584.6788940429688 303.4681396484375" width="1169.3577880859375" height="606.936279296875">
  <!-- svg-source:excalidraw -->

  <defs>
    <style class="style-fonts">
      @font-face {
        font-family: "Virgil";
        src: url("https://excalidraw.com/Virgil.woff2");
      }
      @font-face {
        font-family: "Cascadia";
        src: url("https://excalidraw.com/Cascadia.woff2");
      }
    </style>

  </defs>
  <rect x="0" y="0" width="584.6788940429688" height="303.4681396484375" fill="#ffffff"></rect><g stroke-linecap="round" transform="translate(10 87.73828125) rotate(0 77.6048583984375 59.699066162109375)"><path d="M29.85 0 M29.85 0 C57.71 -0.02, 86.22 0.37, 125.36 0 M29.85 0 C61.84 0.6, 95.47 1.19, 125.36 0 M125.36 0 C145.68 -0.76, 154.57 8.34, 155.21 29.85 M125.36 0 C146.93 1.13, 154.14 8.96, 155.21 29.85 M155.21 29.85 C156.79 52.75, 156.1 75.84, 155.21 89.55 M155.21 29.85 C155.4 43.35, 154.53 58.77, 155.21 89.55 M155.21 89.55 C154.88 107.79, 145.07 118.5, 125.36 119.4 M155.21 89.55 C156.09 111.69, 144.91 118.48, 125.36 119.4 M125.36 119.4 C88.8 118.72, 53.74 120.57, 29.85 119.4 M125.36 119.4 C105.37 119.6, 84.79 119.04, 29.85 119.4 M29.85 119.4 C9.13 119.22, 0.81 110.17, 0 89.55 M29.85 119.4 C11.97 121.49, 0.91 109.31, 0 89.55 M0 89.55 C0.72 69.9, -0.68 51.14, 0 29.85 M0 89.55 C-0.64 71.62, 0.65 54.85, 0 29.85 M0 29.85 C-1.14 8.46, 8.25 0.81, 29.85 0 M0 29.85 C-0.76 11.1, 11.3 -1.8, 29.85 0" stroke="#1e1e1e" stroke-width="1" fill="none"></path></g><g transform="translate(60.55488586425781 134.93734741210938) rotate(0 27.049972534179688 12.5)"><text x="27.049972534179688" y="0" font-family="Virgil, Segoe UI Emoji" font-size="20px" fill="#1e1e1e" text-anchor="middle" style="white-space: pre;" direction="ltr" dominant-baseline="text-before-edge">Client</text></g><g stroke-linecap="round" transform="translate(405.67889404296875 82.56134033203125) rotate(0 84.5 58.5)"><path d="M29.25 0 M29.25 0 C58.6 1.31, 88.33 0.34, 139.75 0 M29.25 0 C61.58 0.07, 94.45 -0.63, 139.75 0 M139.75 0 C160.89 -0.3, 168.45 10.17, 169 29.25 M139.75 0 C157.4 -2.09, 170.11 8.24, 169 29.25 M169 29.25 C169.38 42.8, 169.56 58.85, 169 87.75 M169 29.25 C170.25 41.38, 168.55 55.4, 169 87.75 M169 87.75 C169.14 107.7, 159.23 115.78, 139.75 117 M169 87.75 C168.31 107.13, 159.68 114.75, 139.75 117 M139.75 117 C114.08 115.08, 88.69 116.64, 29.25 117 M139.75 117 C95.57 116.66, 53.65 115.81, 29.25 117 M29.25 117 C8.66 115.4, -0.42 105.55, 0 87.75 M29.25 117 C8.23 116.63, 0.56 106.67, 0 87.75 M0 87.75 C-0.13 66.26, 1.37 45.49, 0 29.25 M0 87.75 C0.01 70.01, 0.45 50.06, 0 29.25 M0 29.25 C-0.57 11.19, 10.69 -0.53, 29.25 0 M0 29.25 C1.25 10.48, 8.89 0.95, 29.25 0" stroke="#1e1e1e" stroke-width="1" fill="none"></path></g><g transform="translate(459.3289260864258 128.56134033203125) rotate(0 30.84996795654297 12.5)"><text x="30.84996795654297" y="0" font-family="Virgil, Segoe UI Emoji" font-size="20px" fill="#1e1e1e" text-anchor="middle" style="white-space: pre;" direction="ltr" dominant-baseline="text-before-edge">Server</text></g><g stroke-linecap="round"><g transform="translate(162.04547119140625 87.23382568359375) rotate(0 119.62507756900038 -17.028043239347937)"><path d="M0.88 0.44 C18.48 -6.5, 65.56 -42.49, 104.89 -41.34 C144.22 -40.2, 214.56 -0.51, 236.86 7.31 M-0.12 -0.37 C17.34 -7.24, 63.75 -41.32, 103.67 -40.39 C143.58 -39.45, 217.34 -2.49, 239.37 5.27" stroke="#1e1e1e" stroke-width="1" fill="none"></path></g><g transform="translate(162.04547119140625 87.23382568359375) rotate(0 119.62507756900038 -17.028043239347937)"><path d="M210.13 3.04 C214.76 2.76, 224.75 6.13, 237.48 5.19 M209 3.51 C216.7 4.54, 224.13 4.72, 239.14 5.39" stroke="#1e1e1e" stroke-width="1" fill="none"></path></g><g transform="translate(162.04547119140625 87.23382568359375) rotate(0 119.62507756900038 -17.028043239347937)"><path d="M218.02 -15.91 C220.8 -11.57, 228.9 -3.65, 237.48 5.19 M216.89 -15.43 C222.71 -9.83, 228.2 -4.99, 239.14 5.39" stroke="#1e1e1e" stroke-width="1" fill="none"></path></g></g><mask></mask><g stroke-linecap="round"><g transform="translate(416.36395263671875 206.64459228515625) rotate(0 -127.78011314341796 28.217810974913903)"><path d="M-0.41 0.43 C-24.07 9.73, -98.28 54.98, -140.96 55.42 C-183.65 55.86, -237.14 11.93, -256.49 3.07 M1.58 -0.38 C-22.29 9.13, -98.59 56.59, -141.71 56.82 C-184.83 57.05, -237.93 9.94, -257.14 1.01" stroke="#1e1e1e" stroke-width="1" fill="none"></path></g><g transform="translate(416.36395263671875 206.64459228515625) rotate(0 -127.78011314341796 28.217810974913903)"><path d="M-227.12 8.1 C-239.53 5.24, -249.49 1.8, -257.59 -0.79 M-227.7 7.43 C-235.68 6.48, -245.18 4.75, -257.27 0.38" stroke="#1e1e1e" stroke-width="1" fill="none"></path></g><g transform="translate(416.36395263671875 206.64459228515625) rotate(0 -127.78011314341796 28.217810974913903)"><path d="M-238.12 25.43 C-246.25 15.94, -251.97 5.83, -257.59 -0.79 M-238.7 24.75 C-243.39 18.51, -249.59 11.58, -257.27 0.38" stroke="#1e1e1e" stroke-width="1" fill="none"></path></g></g><mask></mask><g transform="translate(237.84637451171875 10) rotate(0 37.4599609375 12.5)"><text x="0" y="0" font-family="Virgil, Segoe UI Emoji" font-size="20px" fill="#1e1e1e" text-anchor="start" style="white-space: pre;" direction="ltr" dominant-baseline="text-before-edge">request</text></g><g transform="translate(229.18988037109375 268.4681396484375) rotate(0 41.239952087402344 12.5)"><text x="0" y="0" font-family="Virgil, Segoe UI Emoji" font-size="20px" fill="#1e1e1e" text-anchor="start" style="white-space: pre;" direction="ltr" dominant-baseline="text-before-edge">response</text></g></svg>
