<svg version="1.1" xmlns="http://www.w3.org/2000/svg" viewBox="0 0 815.333251953125 278.0000305175781" width="815.333251953125" height="278.0000305175781">
  <!-- svg-source:excalidraw -->
  
  <defs>
    <style class="style-fonts">
      @font-face {
        font-family: "Virgil";
        src: url("https://excalidraw.com/Virgil.woff2");
      }
      @font-face {
        font-family: "Cascadia";
        src: url("https://excalidraw.com/Cascadia.woff2");
      }
    </style>
    
  </defs>
  <rect x="0" y="0" width="815.333251953125" height="278.0000305175781" fill="#ffffff"></rect><g stroke-linecap="round" transform="translate(220 103.3333740234375) rotate(0 62 52.33332824707031)"><path d="M26.17 0 M26.17 0 C45.76 -1.37, 68.74 0.29, 97.83 0 M26.17 0 C52.86 -0.61, 80.13 0.15, 97.83 0 M97.83 0 C113.6 -1.36, 122.69 8.92, 124 26.17 M97.83 0 C117.12 0.53, 124.49 9, 124 26.17 M124 26.17 C123.56 44.43, 124.11 68.65, 124 78.5 M124 26.17 C124.57 39.66, 124.24 54.88, 124 78.5 M124 78.5 C124.9 95.15, 116.21 105.1, 97.83 104.67 M124 78.5 C125.81 96.49, 114.92 105.47, 97.83 104.67 M97.83 104.67 C70.1 106.29, 44.17 105.38, 26.17 104.67 M97.83 104.67 C80.31 105.4, 62.92 104.36, 26.17 104.67 M26.17 104.67 C9.83 102.82, -0.52 97.08, 0 78.5 M26.17 104.67 C9.81 104.65, 0.75 94.58, 0 78.5 M0 78.5 C-1.44 57.85, -1.6 38.88, 0 26.17 M0 78.5 C-0.43 58.06, -0.42 39.82, 0 26.17 M0 26.17 C-0.92 7.48, 8.4 -1.84, 26.17 0 M0 26.17 C-0.92 10.42, 8.62 -0.31, 26.17 0" stroke="#1e1e1e" stroke-width="1" fill="none"></path></g><g transform="translate(254.99993896484375 145.33334350585938) rotate(0 27.049972534179688 12.5)"><text x="0" y="0" font-family="Virgil, Segoe UI Emoji" font-size="20px" fill="#1e1e1e" text-anchor="start" style="white-space: pre;" direction="ltr" dominant-baseline="text-before-edge">Client</text></g><g stroke-linecap="round"><g transform="translate(290 91.3333740234375) rotate(0 115.56416169511158 -20.11750863815334)"><path d="M0.71 0.24 C19.5 -6.79, 74.53 -43.04, 113 -42.83 C151.46 -42.61, 211.78 -6.07, 231.5 1.52 M-0.37 -0.68 C18.32 -7.52, 74.1 -42.27, 112.57 -41.72 C151.05 -41.18, 210.7 -4.46, 230.48 2.59" stroke="#1e1e1e" stroke-width="1" fill="none"></path></g><g transform="translate(290 91.3333740234375) rotate(0 115.56416169511158 -20.11750863815334)"><path d="M200.99 1.61 C208.85 -0.2, 219.09 0.37, 231.75 4.16 M200.97 -1.03 C211.65 1.7, 221.02 1.35, 230.51 1.78" stroke="#1e1e1e" stroke-width="1" fill="none"></path></g><g transform="translate(290 91.3333740234375) rotate(0 115.56416169511158 -20.11750863815334)"><path d="M209.68 -16.98 C214.64 -12.74, 222.06 -6.16, 231.75 4.16 M209.66 -19.62 C217.5 -10.59, 223.93 -4.63, 230.51 1.78" stroke="#1e1e1e" stroke-width="1" fill="none"></path></g></g><mask></mask><g transform="translate(368.00006103515625 19.3333740234375) rotate(0 37.4599609375 12.5)"><text x="0" y="0" font-family="Virgil, Segoe UI Emoji" font-size="20px" fill="#1e1e1e" text-anchor="start" style="white-space: pre;" direction="ltr" dominant-baseline="text-before-edge">request</text></g><g stroke-linecap="round"><g transform="translate(527.3333129882812 215.33328247070312) rotate(0 -112.4275406217389 20.05321461417492)"><path d="M0.94 0.96 C-19.09 7.47, -81.71 37.59, -119.39 38.08 C-157.07 38.58, -207.61 9.69, -225.13 3.94 M-0.03 0.42 C-19.74 7.22, -79.43 38.86, -117.06 39.67 C-154.69 40.47, -207.99 11.09, -225.8 5.23" stroke="#1e1e1e" stroke-width="1" fill="none"></path></g><g transform="translate(527.3333129882812 215.33328247070312) rotate(0 -112.4275406217389 20.05321461417492)"><path d="M-194.22 5.48 C-206.7 6.72, -217.95 7.14, -226.42 3.52 M-196.54 6.19 C-202.27 7.13, -211.3 6.44, -225.77 5.48" stroke="#1e1e1e" stroke-width="1" fill="none"></path></g><g transform="translate(527.3333129882812 215.33328247070312) rotate(0 -112.4275406217389 20.05321461417492)"><path d="M-202.17 24.4 C-211.57 18.62, -219.9 12.08, -226.42 3.52 M-204.48 25.11 C-208.37 21.4, -215.45 16.05, -225.77 5.48" stroke="#1e1e1e" stroke-width="1" fill="none"></path></g></g><mask></mask><g stroke-linecap="round" transform="translate(479.33331298828125 101.00001525878906) rotate(0 62 52.33332824707031)"><path d="M26.17 0 M26.17 0 C40.64 -2.07, 54.21 -2.27, 97.83 0 M26.17 0 C43.73 -0.42, 60.1 -1.39, 97.83 0 M97.83 0 C116.48 1.12, 125.91 10.52, 124 26.17 M97.83 0 C114.93 0.84, 123.45 8.83, 124 26.17 M124 26.17 C123.72 45.3, 123.4 62.65, 124 78.5 M124 26.17 C122.95 42.83, 124.07 58.75, 124 78.5 M124 78.5 C122.6 94.75, 117.21 105.46, 97.83 104.67 M124 78.5 C126.06 96.07, 114.1 105.91, 97.83 104.67 M97.83 104.67 C71.18 103.39, 47.5 107.16, 26.17 104.67 M97.83 104.67 C78.6 103.64, 62 104.53, 26.17 104.67 M26.17 104.67 C7.83 104.02, -0.62 94.51, 0 78.5 M26.17 104.67 C8.87 105.79, 0.97 95.13, 0 78.5 M0 78.5 C0.22 69.16, -0.31 57.46, 0 26.17 M0 78.5 C0.75 57.03, -0.68 36.54, 0 26.17 M0 26.17 C1.56 9.87, 8.36 -1.32, 26.17 0 M0 26.17 C-0.41 6.62, 9.34 0.97, 26.17 0" stroke="#1e1e1e" stroke-width="1" fill="none"></path></g><g transform="translate(514.333251953125 142.99998474121094) rotate(0 30.84996795654297 12.5)"><text x="0" y="0" font-family="Virgil, Segoe UI Emoji" font-size="20px" fill="#1e1e1e" text-anchor="start" style="white-space: pre;" direction="ltr" dominant-baseline="text-before-edge">Server</text></g><g transform="translate(377.87335205078125 214.16668701171875) rotate(0 41.239952087402344 12.5)"><text x="0" y="0" font-family="Virgil, Segoe UI Emoji" font-size="20px" fill="#1e1e1e" text-anchor="start" style="white-space: pre;" direction="ltr" dominant-baseline="text-before-edge">response</text></g></svg>