<svg width="212" height="48" viewBox="0 0 212 48" fill="none" xmlns="http://www.w3.org/2000/svg">
<path d="M3.04297 37.9785V11.3711H5.43652V37.9785H3.04297ZM26.125 31.8184C26.125 32.7214 25.9518 33.5687 25.6055 34.3604C25.2715 35.152 24.8076 35.8447 24.2139 36.4385C23.6201 37.0322 22.9274 37.5023 22.1357 37.8486C21.3441 38.1826 20.4967 38.3496 19.5938 38.3496H17.7012C16.7982 38.3496 15.9447 38.1826 15.1406 37.8486C14.349 37.5023 13.6562 37.0322 13.0625 36.4385C12.4688 35.8447 11.9987 35.152 11.6523 34.3604C11.3184 33.5687 11.1514 32.7214 11.1514 31.8184V17.5312C11.1514 16.6283 11.3184 15.7809 11.6523 14.9893C11.9987 14.1976 12.4688 13.5049 13.0625 12.9111C13.6562 12.3174 14.349 11.8535 15.1406 11.5195C15.9447 11.1732 16.7982 11 17.7012 11H19.5938C20.4967 11 21.3441 11.1732 22.1357 11.5195C22.9274 11.8535 23.6201 12.3174 24.2139 12.9111C24.8076 13.5049 25.2715 14.1976 25.6055 14.9893C25.9518 15.7809 26.125 16.6283 26.125 17.5312V18.6074L23.7314 18.9785V17.5312C23.7314 16.9375 23.6201 16.387 23.3975 15.8799C23.1748 15.3604 22.8717 14.9089 22.4883 14.5254C22.1048 14.1419 21.6533 13.8389 21.1338 13.6162C20.6266 13.3936 20.0762 13.2822 19.4824 13.2822H17.8125C17.2188 13.2822 16.6621 13.3936 16.1426 13.6162C15.6354 13.8389 15.1839 14.1419 14.7881 14.5254C14.4046 14.9089 14.1016 15.3604 13.8789 15.8799C13.6562 16.387 13.5449 16.9375 13.5449 17.5312V31.8184C13.5449 32.4121 13.6562 32.9688 13.8789 33.4883C14.1016 33.9954 14.4046 34.4469 14.7881 34.8428C15.1839 35.2262 15.6354 35.5293 16.1426 35.752C16.6621 35.9746 17.2188 36.0859 17.8125 36.0859H19.4824C20.0762 36.0859 20.6266 35.9746 21.1338 35.752C21.6533 35.5293 22.1048 35.2262 22.4883 34.8428C22.8717 34.4469 23.1748 33.9954 23.3975 33.4883C23.6201 32.9688 23.7314 32.4121 23.7314 31.8184V30.3711L26.125 30.7607V31.8184ZM31.4688 37.9785V11.3711H46.4424V13.6533H33.8623V23.543H44.0488V25.8252H33.8623V35.6963H46.4424V37.9785H31.4688ZM63.5312 37.9785L56.3135 26.623H53.0293V37.9785H50.6357V11.3711H59.0781C59.9811 11.3711 60.8285 11.5443 61.6201 11.8906C62.4118 12.2246 63.1045 12.6885 63.6982 13.2822C64.292 13.876 64.7559 14.5749 65.0898 15.3789C65.4362 16.1706 65.6094 17.0179 65.6094 17.9209V20.0732C65.6094 20.9762 65.4362 21.8298 65.0898 22.6338C64.7559 23.4255 64.292 24.1182 63.6982 24.7119C63.1045 25.3057 62.4118 25.7757 61.6201 26.1221C60.8285 26.4561 59.9811 26.623 59.0781 26.623L66.2959 37.9785H63.5312ZM63.2158 17.9209C63.2158 17.3271 63.1045 16.7767 62.8818 16.2695C62.6592 15.75 62.3561 15.2985 61.9727 14.915C61.5892 14.5192 61.1377 14.21 60.6182 13.9873C60.111 13.7646 59.5605 13.6533 58.9668 13.6533H53.0293V24.3408H58.9668C59.5605 24.3408 60.111 24.2295 60.6182 24.0068C61.1377 23.7842 61.5892 23.4811 61.9727 23.0977C62.3561 22.7018 62.6592 22.2503 62.8818 21.7432C63.1045 21.2236 63.2158 20.667 63.2158 20.0732V17.9209ZM85.8525 21.2236C85.8525 22.1266 85.6794 22.974 85.333 23.7656C84.999 24.5573 84.5352 25.25 83.9414 25.8438C83.3477 26.4375 82.6488 26.9076 81.8447 27.2539C81.0531 27.5879 80.2057 27.7549 79.3027 27.7549H73.2725V37.9785H70.8789V11.3711H79.3027C80.2057 11.3711 81.0531 11.5443 81.8447 11.8906C82.6488 12.2246 83.3477 12.6885 83.9414 13.2822C84.5352 13.876 84.999 14.5749 85.333 15.3789C85.6794 16.1706 85.8525 17.0179 85.8525 17.9209V21.2236ZM83.459 17.9209C83.459 17.3271 83.3477 16.7767 83.125 16.2695C82.9023 15.75 82.5931 15.2985 82.1973 14.915C81.8138 14.5192 81.3623 14.21 80.8428 13.9873C80.3356 13.7646 79.7852 13.6533 79.1914 13.6533H73.2725V25.4727H79.1914C79.7852 25.4727 80.3356 25.3613 80.8428 25.1387C81.3623 24.916 81.8138 24.613 82.1973 24.2295C82.5931 23.846 82.9023 23.4007 83.125 22.8936C83.3477 22.374 83.459 21.8174 83.459 21.2236V17.9209ZM105.02 31.8184C105.02 32.7214 104.846 33.5687 104.5 34.3604C104.166 35.152 103.702 35.8447 103.108 36.4385C102.515 37.0322 101.822 37.5023 101.03 37.8486C100.239 38.1826 99.3913 38.3496 98.4883 38.3496H96.5957C95.6927 38.3496 94.8392 38.1826 94.0352 37.8486C93.2435 37.5023 92.5508 37.0322 91.957 36.4385C91.3633 35.8447 90.8932 35.152 90.5469 34.3604C90.2129 33.5687 90.0459 32.7214 90.0459 31.8184V17.5312C90.0459 16.6283 90.2129 15.7809 90.5469 14.9893C90.8932 14.1976 91.3633 13.5049 91.957 12.9111C92.5508 12.3174 93.2435 11.8535 94.0352 11.5195C94.8392 11.1732 95.6927 11 96.5957 11H98.4883C99.3913 11 100.239 11.1732 101.03 11.5195C101.822 11.8535 102.515 12.3174 103.108 12.9111C103.702 13.5049 104.166 14.1976 104.5 14.9893C104.846 15.7809 105.02 16.6283 105.02 17.5312V18.6074L102.626 18.9785V17.5312C102.626 16.9375 102.515 16.387 102.292 15.8799C102.069 15.3604 101.766 14.9089 101.383 14.5254C100.999 14.1419 100.548 13.8389 100.028 13.6162C99.5212 13.3936 98.9707 13.2822 98.377 13.2822H96.707C96.1133 13.2822 95.5566 13.3936 95.0371 13.6162C94.5299 13.8389 94.0785 14.1419 93.6826 14.5254C93.2992 14.9089 92.9961 15.3604 92.7734 15.8799C92.5508 16.387 92.4395 16.9375 92.4395 17.5312V31.8184C92.4395 32.4121 92.5508 32.9688 92.7734 33.4883C92.9961 33.9954 93.2992 34.4469 93.6826 34.8428C94.0785 35.2262 94.5299 35.5293 95.0371 35.752C95.5566 35.9746 96.1133 36.0859 96.707 36.0859H98.377C98.9707 36.0859 99.5212 35.9746 100.028 35.752C100.548 35.5293 100.999 35.2262 101.383 34.8428C101.766 34.4469 102.069 33.9954 102.292 33.4883C102.515 32.9688 102.626 32.4121 102.626 31.8184V30.3711L105.02 30.7607V31.8184Z" fill="#0E0404"/>
<path d="M136.017 31.4473C136.017 32.3503 135.843 33.1976 135.497 33.9893C135.163 34.7809 134.699 35.4736 134.105 36.0674C133.512 36.6611 132.813 37.1312 132.009 37.4775C131.217 37.8115 130.37 37.9785 129.467 37.9785H121.043V11.3711H129.467C130.37 11.3711 131.217 11.5443 132.009 11.8906C132.813 12.2246 133.512 12.6885 134.105 13.2822C134.699 13.876 135.163 14.5749 135.497 15.3789C135.843 16.1706 136.017 17.0179 136.017 17.9209V31.4473ZM133.623 17.9209C133.623 17.3271 133.512 16.7767 133.289 16.2695C133.066 15.75 132.757 15.2985 132.361 14.915C131.978 14.5192 131.526 14.21 131.007 13.9873C130.5 13.7646 129.949 13.6533 129.355 13.6533H123.437V35.6963H129.355C129.949 35.6963 130.5 35.585 131.007 35.3623C131.526 35.1396 131.978 34.8366 132.361 34.4531C132.757 34.0697 133.066 33.6243 133.289 33.1172C133.512 32.5977 133.623 32.041 133.623 31.4473V17.9209ZM157.057 31.8184C157.057 32.7214 156.884 33.5687 156.537 34.3604C156.203 35.152 155.739 35.8447 155.146 36.4385C154.552 37.0322 153.859 37.5023 153.068 37.8486C152.276 38.1826 151.429 38.3496 150.526 38.3496H148.633C147.73 38.3496 146.877 38.1826 146.073 37.8486C145.281 37.5023 144.588 37.0322 143.994 36.4385C143.401 35.8447 142.931 35.152 142.584 34.3604C142.25 33.5687 142.083 32.7214 142.083 31.8184V17.5312C142.083 16.6283 142.25 15.7809 142.584 14.9893C142.931 14.1976 143.401 13.5049 143.994 12.9111C144.588 12.3174 145.281 11.8535 146.073 11.5195C146.877 11.1732 147.73 11 148.633 11H150.526C151.429 11 152.276 11.1732 153.068 11.5195C153.859 11.8535 154.552 12.3174 155.146 12.9111C155.739 13.5049 156.203 14.1976 156.537 14.9893C156.884 15.7809 157.057 16.6283 157.057 17.5312V31.8184ZM154.663 17.5312C154.663 16.9375 154.552 16.387 154.329 15.8799C154.107 15.3604 153.804 14.9089 153.42 14.5254C153.037 14.1419 152.585 13.8389 152.066 13.6162C151.559 13.3936 151.008 13.2822 150.414 13.2822H148.744C148.151 13.2822 147.594 13.3936 147.074 13.6162C146.567 13.8389 146.116 14.1419 145.72 14.5254C145.336 14.9089 145.033 15.3604 144.811 15.8799C144.588 16.387 144.477 16.9375 144.477 17.5312V31.8184C144.477 32.4121 144.588 32.9688 144.811 33.4883C145.033 33.9954 145.336 34.4469 145.72 34.8428C146.116 35.2262 146.567 35.5293 147.074 35.752C147.594 35.9746 148.151 36.0859 148.744 36.0859H150.414C151.008 36.0859 151.559 35.9746 152.066 35.752C152.585 35.5293 153.037 35.2262 153.42 34.8428C153.804 34.4469 154.107 33.9954 154.329 33.4883C154.552 32.9688 154.663 32.4121 154.663 31.8184V17.5312ZM178.116 31.8184C178.116 32.7214 177.943 33.5687 177.596 34.3604C177.262 35.152 176.798 35.8447 176.205 36.4385C175.611 37.0322 174.918 37.5023 174.126 37.8486C173.335 38.1826 172.487 38.3496 171.584 38.3496H169.692C168.789 38.3496 167.935 38.1826 167.131 37.8486C166.34 37.5023 165.647 37.0322 165.053 36.4385C164.459 35.8447 163.989 35.152 163.643 34.3604C163.309 33.5687 163.142 32.7214 163.142 31.8184V17.5312C163.142 16.6283 163.309 15.7809 163.643 14.9893C163.989 14.1976 164.459 13.5049 165.053 12.9111C165.647 12.3174 166.34 11.8535 167.131 11.5195C167.935 11.1732 168.789 11 169.692 11H171.584C172.487 11 173.335 11.1732 174.126 11.5195C174.918 11.8535 175.611 12.3174 176.205 12.9111C176.798 13.5049 177.262 14.1976 177.596 14.9893C177.943 15.7809 178.116 16.6283 178.116 17.5312V18.6074L175.722 18.9785V17.5312C175.722 16.9375 175.611 16.387 175.388 15.8799C175.166 15.3604 174.862 14.9089 174.479 14.5254C174.096 14.1419 173.644 13.8389 173.124 13.6162C172.617 13.3936 172.067 13.2822 171.473 13.2822H169.803C169.209 13.2822 168.653 13.3936 168.133 13.6162C167.626 13.8389 167.175 14.1419 166.779 14.5254C166.395 14.9089 166.092 15.3604 165.87 15.8799C165.647 16.387 165.536 16.9375 165.536 17.5312V31.8184C165.536 32.4121 165.647 32.9688 165.87 33.4883C166.092 33.9954 166.395 34.4469 166.779 34.8428C167.175 35.2262 167.626 35.5293 168.133 35.752C168.653 35.9746 169.209 36.0859 169.803 36.0859H171.473C172.067 36.0859 172.617 35.9746 173.124 35.752C173.644 35.5293 174.096 35.2262 174.479 34.8428C174.862 34.4469 175.166 33.9954 175.388 33.4883C175.611 32.9688 175.722 32.4121 175.722 31.8184V30.3711L178.116 30.7607V31.8184ZM198.803 31.8184C198.803 32.7214 198.618 33.5687 198.247 34.3604C197.888 35.152 197.399 35.8447 196.781 36.4385C196.175 37.0322 195.464 37.5023 194.647 37.8486C193.843 38.1826 192.99 38.3496 192.087 38.3496H190.176C189.273 38.3496 188.413 38.1826 187.596 37.8486C186.792 37.5023 186.081 37.0322 185.463 36.4385C184.856 35.8447 184.368 35.152 183.997 34.3604C183.638 33.5687 183.459 32.7214 183.459 31.8184V30.7607L185.852 30.3711V31.8184C185.852 32.4121 185.97 32.9688 186.205 33.4883C186.452 33.9954 186.78 34.4469 187.188 34.8428C187.596 35.2262 188.066 35.5293 188.598 35.752C189.143 35.9746 189.712 36.0859 190.305 36.0859H191.975C192.569 36.0859 193.132 35.9746 193.664 35.752C194.196 35.5293 194.666 35.2262 195.074 34.8428C195.482 34.4469 195.804 33.9954 196.039 33.4883C196.286 32.9688 196.41 32.4121 196.41 31.8184V31.0205C196.41 30.1051 196.231 29.3444 195.872 28.7383C195.513 28.1322 195.037 27.6188 194.443 27.1982C193.849 26.7653 193.175 26.4004 192.421 26.1035C191.678 25.8066 190.912 25.5098 190.12 25.2129C189.328 24.916 188.555 24.5882 187.801 24.2295C187.058 23.8708 186.39 23.4255 185.797 22.8936C185.203 22.3493 184.727 21.6875 184.368 20.9082C184.009 20.1289 183.83 19.1702 183.83 18.0322V17.5312C183.83 16.6283 183.997 15.7809 184.331 14.9893C184.677 14.1976 185.147 13.5049 185.741 12.9111C186.335 12.3174 187.027 11.8535 187.819 11.5195C188.623 11.1732 189.477 11 190.38 11H192.087C192.99 11 193.837 11.1732 194.629 11.5195C195.42 11.8535 196.113 12.3174 196.707 12.9111C197.301 13.5049 197.764 14.1976 198.098 14.9893C198.445 15.7809 198.618 16.6283 198.618 17.5312V18.2178L196.224 18.6074V17.5312C196.224 16.9375 196.113 16.387 195.89 15.8799C195.668 15.3604 195.365 14.9089 194.981 14.5254C194.598 14.1419 194.146 13.8389 193.627 13.6162C193.12 13.3936 192.569 13.2822 191.975 13.2822H190.491C189.897 13.2822 189.341 13.3936 188.821 13.6162C188.314 13.8389 187.862 14.1419 187.467 14.5254C187.083 14.9089 186.78 15.3604 186.557 15.8799C186.335 16.387 186.223 16.9375 186.223 17.5312V18.0322C186.223 18.8857 186.403 19.6032 186.761 20.1846C187.12 20.766 187.596 21.2669 188.19 21.6875C188.784 22.0957 189.452 22.4544 190.194 22.7637C190.949 23.0605 191.722 23.3698 192.513 23.6914C193.305 24.0007 194.072 24.347 194.814 24.7305C195.569 25.1016 196.243 25.5654 196.837 26.1221C197.43 26.6663 197.907 27.3343 198.265 28.126C198.624 28.9176 198.803 29.8825 198.803 31.0205V31.8184Z" fill="url(#paint0_linear_115_98)"/>
<path d="M135.497 33.9893L134.581 33.5884L134.576 33.6006L135.497 33.9893ZM132.009 37.4775L132.398 38.3989L132.404 38.396L132.009 37.4775ZM121.043 37.9785H120.043V38.9785H121.043V37.9785ZM121.043 11.3711V10.3711H120.043V11.3711H121.043ZM132.009 11.8906L131.608 12.8068L131.617 12.8105L131.625 12.8141L132.009 11.8906ZM135.497 15.3789L134.574 15.7625L134.577 15.7712L134.581 15.7797L135.497 15.3789ZM133.289 16.2695L132.37 16.6635L132.373 16.6715L133.289 16.2695ZM132.361 14.915L131.643 15.6108L131.654 15.6222L131.666 15.6333L132.361 14.915ZM131.007 13.9873L130.605 14.903L130.613 14.9064L131.007 13.9873ZM123.437 13.6533V12.6533H122.437V13.6533H123.437ZM123.437 35.6963H122.437V36.6963H123.437V35.6963ZM131.007 35.3623L130.613 34.4431L130.605 34.4467L131.007 35.3623ZM132.361 34.4531L131.666 33.7349L131.66 33.7404L131.654 33.746L132.361 34.4531ZM133.289 33.1172L134.205 33.5192L134.208 33.5111L133.289 33.1172ZM135.017 31.4473C135.017 32.2186 134.869 32.9288 134.581 33.5884L136.413 34.3901C136.817 33.4663 137.017 32.4819 137.017 31.4473H135.017ZM134.576 33.6006C134.291 34.2761 133.899 34.86 133.398 35.3603L134.813 36.7745C135.5 36.0873 136.035 35.2858 136.418 34.378L134.576 33.6006ZM133.398 35.3603C132.898 35.8607 132.306 36.2607 131.613 36.5591L132.404 38.396C133.32 38.0017 134.126 37.4616 134.813 36.7745L133.398 35.3603ZM131.62 36.5562C130.958 36.8356 130.243 36.9785 129.467 36.9785V38.9785C130.496 38.9785 131.477 38.7874 132.397 38.3989L131.62 36.5562ZM129.467 36.9785H121.043V38.9785H129.467V36.9785ZM122.043 37.9785V11.3711H120.043V37.9785H122.043ZM121.043 12.3711H129.467V10.3711H121.043V12.3711ZM129.467 12.3711C130.238 12.3711 130.948 12.5182 131.608 12.8068L132.41 10.9745C131.486 10.5703 130.501 10.3711 129.467 10.3711V12.3711ZM131.625 12.8141C132.313 13.0997 132.901 13.4916 133.398 13.9893L134.813 12.5751C134.123 11.8853 133.313 11.3495 132.392 10.9671L131.625 12.8141ZM133.398 13.9893C133.896 14.487 134.288 15.0749 134.574 15.7625L136.421 14.9953C136.038 14.0748 135.502 13.2649 134.813 12.5751L133.398 13.9893ZM134.581 15.7797C134.869 16.4393 135.017 17.1495 135.017 17.9209H137.017C137.017 16.8863 136.817 15.9018 136.413 14.9781L134.581 15.7797ZM135.017 17.9209V31.4473H137.017V17.9209H135.017ZM134.623 17.9209C134.623 17.1989 134.487 16.5104 134.205 15.8675L132.373 16.6715C132.537 17.043 132.623 17.4554 132.623 17.9209H134.623ZM134.208 15.8756C133.935 15.2374 133.551 14.6749 133.057 14.1968L131.666 15.6333C131.964 15.9221 132.198 16.2626 132.37 16.6635L134.208 15.8756ZM133.08 14.2192C132.601 13.7257 132.039 13.3417 131.401 13.0682L130.613 14.9064C131.014 15.0783 131.354 15.3127 131.643 15.6108L133.08 14.2192ZM131.409 13.0717C130.766 12.7895 130.078 12.6533 129.355 12.6533V14.6533C129.821 14.6533 130.233 14.7398 130.605 14.9029L131.409 13.0717ZM129.355 12.6533H123.437V14.6533H129.355V12.6533ZM122.437 13.6533V35.6963H124.437V13.6533H122.437ZM123.437 36.6963H129.355V34.6963H123.437V36.6963ZM129.355 36.6963C130.078 36.6963 130.766 36.5602 131.409 36.2779L130.605 34.4467C130.233 34.6098 129.821 34.6963 129.355 34.6963V36.6963ZM131.401 36.2814C132.032 36.0108 132.591 35.6374 133.068 35.1602L131.654 33.746C131.365 34.0357 131.021 34.2685 130.613 34.4432L131.401 36.2814ZM133.057 35.1714C133.547 34.6973 133.93 34.1444 134.205 33.5192L132.373 32.7152C132.203 33.1043 131.968 33.4421 131.666 33.7349L133.057 35.1714ZM134.208 33.5111C134.487 32.8609 134.623 32.1695 134.623 31.4473H132.623C132.623 31.9125 132.537 32.3345 132.37 32.7233L134.208 33.5111ZM134.623 31.4473V17.9209H132.623V31.4473H134.623ZM156.537 34.3604L155.621 33.9595L155.616 33.9717L156.537 34.3604ZM153.068 37.8486L153.456 38.7701L153.468 38.7648L153.068 37.8486ZM146.073 37.8486L145.672 38.7648L145.68 38.7685L145.689 38.7721L146.073 37.8486ZM142.584 34.3604L141.663 34.7491L141.668 34.7612L142.584 34.3604ZM142.584 14.9893L141.668 14.5884L141.663 14.6006L142.584 14.9893ZM146.073 11.5195L146.461 12.4409L146.468 12.4379L146.073 11.5195ZM153.068 11.5195L152.667 12.4358L152.679 12.4409L153.068 11.5195ZM156.537 14.9893L155.616 15.378L155.621 15.3901L156.537 14.9893ZM154.329 15.8799L153.41 16.2738L153.414 16.2819L154.329 15.8799ZM152.066 13.6162L151.664 14.5319L151.672 14.5354L152.066 13.6162ZM147.074 13.6162L146.681 12.697L146.672 12.7006L147.074 13.6162ZM145.72 14.5254L145.024 13.8072L145.018 13.8127L145.013 13.8183L145.72 14.5254ZM144.811 15.8799L145.726 16.2819L145.73 16.2738L144.811 15.8799ZM144.811 33.4883L143.892 33.8822L143.895 33.8903L144.811 33.4883ZM145.72 34.8428L145.002 35.5386L145.013 35.55L145.024 35.561L145.72 34.8428ZM147.074 35.752L146.672 36.6676L146.681 36.6711L147.074 35.752ZM152.066 35.752L151.672 34.8328L151.664 34.8363L152.066 35.752ZM153.42 34.8428L154.127 35.5499L154.133 35.5443L154.138 35.5386L153.42 34.8428ZM154.329 33.4883L155.245 33.8903L155.248 33.8822L154.329 33.4883ZM156.057 31.8184C156.057 32.5897 155.91 33.2999 155.621 33.9595L157.454 34.7612C157.858 33.8374 158.057 32.853 158.057 31.8184H156.057ZM155.616 33.9717C155.331 34.6472 154.939 35.2311 154.439 35.7314L155.853 37.1456C156.54 36.4584 157.076 35.6569 157.459 34.7491L155.616 33.9717ZM154.439 35.7314C153.936 36.2344 153.348 36.6346 152.667 36.9325L153.468 38.7648C154.371 38.3699 155.168 37.8301 155.853 37.1456L154.439 35.7314ZM152.679 36.9273C152.016 37.2067 151.302 37.3496 150.526 37.3496V39.3496C151.555 39.3496 152.535 39.1585 153.456 38.77L152.679 36.9273ZM150.526 37.3496H148.633V39.3496H150.526V37.3496ZM148.633 37.3496C147.857 37.3496 147.134 37.2067 146.456 36.9251L145.689 38.7721C146.619 39.1585 147.603 39.3496 148.633 39.3496V37.3496ZM146.473 36.9325C145.793 36.6346 145.204 36.2344 144.701 35.7314L143.287 37.1456C143.972 37.8301 144.769 38.3699 145.672 38.7648L146.473 36.9325ZM144.701 35.7314C144.198 35.2284 143.798 34.6403 143.5 33.9595L141.668 34.7612C142.063 35.6637 142.603 36.4611 143.287 37.1456L144.701 35.7314ZM143.506 33.9717C143.226 33.3092 143.083 32.5948 143.083 31.8184H141.083C141.083 32.848 141.274 33.8281 141.663 34.7491L143.506 33.9717ZM143.083 31.8184V17.5312H141.083V31.8184H143.083ZM143.083 17.5312C143.083 16.7549 143.226 16.0404 143.506 15.378L141.663 14.6006C141.274 15.5215 141.083 16.5017 141.083 17.5312H143.083ZM143.5 15.3901C143.798 14.7093 144.198 14.1212 144.701 13.6182L143.287 12.204C142.603 12.8885 142.063 13.6859 141.668 14.5884L143.5 15.3901ZM144.701 13.6182C145.202 13.1179 145.786 12.7259 146.461 12.4409L145.684 10.5982C144.776 10.9811 143.974 11.5168 143.287 12.204L144.701 13.6182ZM146.468 12.4379C147.143 12.1471 147.862 12 148.633 12V10C147.598 10 146.61 10.1992 145.677 10.6011L146.468 12.4379ZM148.633 12H150.526V10H148.633V12ZM150.526 12C151.297 12 152.007 12.1471 152.667 12.4357L153.468 10.6034C152.545 10.1992 151.56 10 150.526 10V12ZM152.679 12.4409C153.354 12.7259 153.938 13.1179 154.439 13.6182L155.853 12.204C155.166 11.5168 154.364 10.9811 153.456 10.5982L152.679 12.4409ZM154.439 13.6182C154.939 14.1185 155.331 14.7024 155.616 15.378L157.459 14.6006C157.076 13.6927 156.54 12.8912 155.853 12.204L154.439 13.6182ZM155.621 15.3901C155.91 16.0497 156.057 16.7599 156.057 17.5312H158.057C158.057 16.4966 157.858 15.5122 157.454 14.5884L155.621 15.3901ZM156.057 17.5312V31.8184H158.057V17.5312H156.057ZM155.663 17.5312C155.663 16.8092 155.527 16.1207 155.245 15.4779L153.414 16.2819C153.577 16.6534 153.663 17.0658 153.663 17.5312H155.663ZM155.248 15.486C154.978 14.8545 154.604 14.2955 154.127 13.8183L152.713 15.2325C153.003 15.5222 153.235 15.8662 153.41 16.2738L155.248 15.486ZM154.127 13.8183C153.65 13.3411 153.091 12.9677 152.46 12.6971L151.672 14.5354C152.079 14.7101 152.423 14.9428 152.713 15.2325L154.127 13.8183ZM152.468 12.7006C151.825 12.4184 151.136 12.2822 150.414 12.2822V14.2822C150.88 14.2822 151.292 14.3688 151.664 14.5319L152.468 12.7006ZM150.414 12.2822H148.744V14.2822H150.414V12.2822ZM148.744 12.2822C148.022 12.2822 147.331 12.4184 146.681 12.6971L147.468 14.5354C147.857 14.3687 148.279 14.2822 148.744 14.2822V12.2822ZM146.672 12.7006C146.057 12.9708 145.506 13.3405 145.024 13.8072L146.416 15.2436C146.726 14.9433 147.078 14.7069 147.476 14.5319L146.672 12.7006ZM145.013 13.8183C144.536 14.2955 144.162 14.8545 143.892 15.486L145.73 16.2738C145.905 15.8662 146.137 15.5222 146.427 15.2325L145.013 13.8183ZM143.895 15.4779C143.613 16.1207 143.477 16.8092 143.477 17.5312H145.477C145.477 17.0658 145.563 16.6534 145.726 16.2819L143.895 15.4779ZM143.477 17.5312V31.8184H145.477V17.5312H143.477ZM143.477 31.8184C143.477 32.5406 143.613 33.232 143.892 33.8822L145.73 33.0944C145.563 32.7055 145.477 32.2836 145.477 31.8184H143.477ZM143.895 33.8903C144.165 34.5058 144.535 35.0569 145.002 35.5386L146.438 34.147C146.138 33.837 145.902 33.4851 145.726 33.0863L143.895 33.8903ZM145.024 35.561C145.506 36.0276 146.057 36.3974 146.672 36.6676L147.476 34.8363C147.078 34.6612 146.726 34.4248 146.416 34.1245L145.024 35.561ZM146.681 36.6711C147.331 36.9498 148.022 37.0859 148.744 37.0859V35.0859C148.279 35.0859 147.857 34.9994 147.468 34.8328L146.681 36.6711ZM148.744 37.0859H150.414V35.0859H148.744V37.0859ZM150.414 37.0859C151.136 37.0859 151.825 36.9498 152.468 36.6676L151.664 34.8363C151.292 34.9994 150.88 35.0859 150.414 35.0859V37.0859ZM152.46 36.6711C153.091 36.4005 153.65 36.0271 154.127 35.5499L152.713 34.1357C152.423 34.4254 152.079 34.6581 151.672 34.8328L152.46 36.6711ZM154.138 35.5386C154.605 35.0569 154.975 34.5058 155.245 33.8903L153.414 33.0863C153.239 33.4851 153.002 33.837 152.702 34.147L154.138 35.5386ZM155.248 33.8822C155.527 33.232 155.663 32.5406 155.663 31.8184H153.663C153.663 32.2836 153.577 32.7055 153.41 33.0944L155.248 33.8822ZM155.663 31.8184V17.5312H153.663V31.8184H155.663ZM177.596 34.3604L176.68 33.9595L176.675 33.9717L177.596 34.3604ZM174.126 37.8486L174.515 38.7701L174.527 38.7648L174.126 37.8486ZM167.131 37.8486L166.731 38.7648L166.739 38.7685L166.748 38.7721L167.131 37.8486ZM163.643 34.3604L162.722 34.7491L162.727 34.7612L163.643 34.3604ZM163.643 14.9893L162.727 14.5884L162.722 14.6006L163.643 14.9893ZM167.131 11.5195L167.52 12.4409L167.527 12.4379L167.131 11.5195ZM174.126 11.5195L173.726 12.4358L173.738 12.4409L174.126 11.5195ZM177.596 14.9893L176.675 15.378L176.68 15.3901L177.596 14.9893ZM178.116 18.6074L178.269 19.5956L179.116 19.4643V18.6074H178.116ZM175.722 18.9785H174.722V20.1455L175.875 19.9667L175.722 18.9785ZM175.388 15.8799L174.469 16.2738L174.473 16.2819L175.388 15.8799ZM173.124 13.6162L172.722 14.5319L172.731 14.5354L173.124 13.6162ZM168.133 13.6162L167.739 12.697L167.731 12.7006L168.133 13.6162ZM166.779 14.5254L166.083 13.8072L166.077 13.8127L166.072 13.8183L166.779 14.5254ZM165.87 15.8799L166.785 16.2819L166.789 16.2738L165.87 15.8799ZM165.87 33.4883L164.95 33.8822L164.954 33.8903L165.87 33.4883ZM166.779 34.8428L166.061 35.5386L166.072 35.55L166.083 35.561L166.779 34.8428ZM168.133 35.752L167.731 36.6676L167.739 36.6711L168.133 35.752ZM173.124 35.752L172.731 34.8328L172.723 34.8363L173.124 35.752ZM174.479 34.8428L175.186 35.5499L175.192 35.5443L175.197 35.5386L174.479 34.8428ZM175.388 33.4883L176.304 33.8903L176.307 33.8822L175.388 33.4883ZM175.722 30.3711L175.883 29.3841L174.722 29.1951V30.3711H175.722ZM178.116 30.7607H179.116V29.9104L178.276 29.7737L178.116 30.7607ZM177.116 31.8184C177.116 32.5897 176.969 33.2999 176.68 33.9595L178.512 34.7612C178.916 33.8374 179.116 32.853 179.116 31.8184H177.116ZM176.675 33.9717C176.39 34.6472 175.998 35.2311 175.497 35.7314L176.912 37.1456C177.599 36.4584 178.135 35.6569 178.518 34.7491L176.675 33.9717ZM175.497 35.7314C174.994 36.2344 174.406 36.6346 173.726 36.9325L174.527 38.7648C175.43 38.3699 176.227 37.8301 176.912 37.1456L175.497 35.7314ZM173.738 36.9273C173.075 37.2067 172.361 37.3496 171.584 37.3496V39.3496C172.614 39.3496 173.594 39.1585 174.515 38.77L173.738 36.9273ZM171.584 37.3496H169.692V39.3496H171.584V37.3496ZM169.692 37.3496C168.916 37.3496 168.193 37.2067 167.515 36.9251L166.748 38.7721C167.678 39.1585 168.662 39.3496 169.692 39.3496V37.3496ZM167.532 36.9325C166.851 36.6346 166.263 36.2344 165.76 35.7314L164.346 37.1456C165.031 37.8301 165.828 38.3699 166.731 38.7648L167.532 36.9325ZM165.76 35.7314C165.257 35.2284 164.857 34.6403 164.559 33.9595L162.727 34.7612C163.122 35.6637 163.662 36.4611 164.346 37.1456L165.76 35.7314ZM164.564 33.9717C164.285 33.3092 164.142 32.5948 164.142 31.8184H162.142C162.142 32.848 162.333 33.8281 162.722 34.7491L164.564 33.9717ZM164.142 31.8184V17.5312H162.142V31.8184H164.142ZM164.142 17.5312C164.142 16.7549 164.285 16.0404 164.564 15.378L162.722 14.6006C162.333 15.5215 162.142 16.5017 162.142 17.5312H164.142ZM164.559 15.3901C164.857 14.7093 165.257 14.1212 165.76 13.6182L164.346 12.204C163.662 12.8885 163.122 13.6859 162.727 14.5884L164.559 15.3901ZM165.76 13.6182C166.261 13.1179 166.845 12.7259 167.52 12.4409L166.743 10.5982C165.835 10.9811 165.033 11.5168 164.346 12.204L165.76 13.6182ZM167.527 12.4379C168.202 12.1471 168.921 12 169.692 12V10C168.657 10 167.669 10.1992 166.736 10.6011L167.527 12.4379ZM169.692 12H171.584V10H169.692V12ZM171.584 12C172.356 12 173.066 12.1471 173.726 12.4357L174.527 10.6034C173.604 10.1992 172.619 10 171.584 10V12ZM173.738 12.4409C174.413 12.7259 174.997 13.1179 175.497 13.6182L176.912 12.204C176.224 11.5168 175.423 10.9811 174.515 10.5982L173.738 12.4409ZM175.497 13.6182C175.998 14.1185 176.39 14.7024 176.675 15.378L178.518 14.6006C178.135 13.6927 177.599 12.8912 176.912 12.204L175.497 13.6182ZM176.68 15.3901C176.969 16.0497 177.116 16.7599 177.116 17.5312H179.116C179.116 16.4966 178.916 15.5122 178.512 14.5884L176.68 15.3901ZM177.116 17.5312V18.6074H179.116V17.5312H177.116ZM177.962 17.6192L175.569 17.9903L175.875 19.9667L178.269 19.5956L177.962 17.6192ZM176.722 18.9785V17.5312H174.722V18.9785H176.722ZM176.722 17.5312C176.722 16.8092 176.586 16.1207 176.304 15.4779L174.473 16.2819C174.636 16.6534 174.722 17.0658 174.722 17.5312H176.722ZM176.307 15.486C176.037 14.8545 175.663 14.2955 175.186 13.8183L173.772 15.2325C174.062 15.5222 174.294 15.8662 174.469 16.2738L176.307 15.486ZM175.186 13.8183C174.709 13.3411 174.15 12.9677 173.518 12.6971L172.731 14.5354C173.138 14.7101 173.482 14.9428 173.772 15.2325L175.186 13.8183ZM173.526 12.7006C172.884 12.4184 172.195 12.2822 171.473 12.2822V14.2822C171.939 14.2822 172.351 14.3688 172.723 14.5319L173.526 12.7006ZM171.473 12.2822H169.803V14.2822H171.473V12.2822ZM169.803 12.2822C169.081 12.2822 168.39 12.4184 167.739 12.6971L168.527 14.5354C168.916 14.3687 169.338 14.2822 169.803 14.2822V12.2822ZM167.731 12.7006C167.116 12.9708 166.565 13.3405 166.083 13.8072L167.475 15.2436C167.785 14.9433 168.136 14.7069 168.535 14.5319L167.731 12.7006ZM166.072 13.8183C165.594 14.2955 165.221 14.8545 164.95 15.486L166.789 16.2738C166.963 15.8662 167.196 15.5222 167.486 15.2325L166.072 13.8183ZM164.954 15.4779C164.672 16.1207 164.536 16.8092 164.536 17.5312H166.536C166.536 17.0658 166.622 16.6534 166.785 16.2819L164.954 15.4779ZM164.536 17.5312V31.8184H166.536V17.5312H164.536ZM164.536 31.8184C164.536 32.5406 164.672 33.232 164.95 33.8822L166.789 33.0944C166.622 32.7055 166.536 32.2836 166.536 31.8184H164.536ZM164.954 33.8903C165.224 34.5058 165.594 35.0569 166.061 35.5386L167.497 34.147C167.197 33.837 166.96 33.4851 166.785 33.0863L164.954 33.8903ZM166.083 35.561C166.565 36.0276 167.116 36.3974 167.731 36.6676L168.535 34.8363C168.136 34.6612 167.785 34.4248 167.475 34.1245L166.083 35.561ZM167.739 36.6711C168.39 36.9498 169.081 37.0859 169.803 37.0859V35.0859C169.338 35.0859 168.916 34.9994 168.527 34.8328L167.739 36.6711ZM169.803 37.0859H171.473V35.0859H169.803V37.0859ZM171.473 37.0859C172.195 37.0859 172.884 36.9498 173.526 36.6676L172.723 34.8363C172.351 34.9994 171.939 35.0859 171.473 35.0859V37.0859ZM173.518 36.6711C174.15 36.4005 174.709 36.0271 175.186 35.5499L173.772 34.1357C173.482 34.4254 173.138 34.6581 172.731 34.8328L173.518 36.6711ZM175.197 35.5386C175.664 35.0569 176.034 34.5058 176.304 33.8903L174.473 33.0863C174.297 33.4851 174.061 33.837 173.761 34.147L175.197 35.5386ZM176.307 33.8822C176.586 33.232 176.722 32.5406 176.722 31.8184H174.722C174.722 32.2836 174.636 32.7055 174.469 33.0944L176.307 33.8822ZM176.722 31.8184V30.3711H174.722V31.8184H176.722ZM175.561 31.3581L177.955 31.7477L178.276 29.7737L175.883 29.3841L175.561 31.3581ZM177.116 30.7607V31.8184H179.116V30.7607H177.116ZM198.247 34.3604L197.341 33.9359L197.336 33.9476L198.247 34.3604ZM196.781 36.4385L196.088 35.7171L196.081 35.7241L196.781 36.4385ZM194.647 37.8486L195.031 38.7722L195.038 38.7692L194.647 37.8486ZM187.596 37.8486L187.201 38.767L187.209 38.7707L187.218 38.7742L187.596 37.8486ZM185.463 36.4385L184.763 37.1529L184.77 37.1599L185.463 36.4385ZM183.997 34.3604L183.086 34.7731L183.091 34.7848L183.997 34.3604ZM183.459 30.7607L183.298 29.7737L182.459 29.9104V30.7607H183.459ZM185.852 30.3711H186.852V29.1951L185.692 29.3841L185.852 30.3711ZM186.205 33.4883L185.294 33.9004L185.3 33.9137L185.306 33.9267L186.205 33.4883ZM187.188 34.8428L186.492 35.5607L186.498 35.5662L186.504 35.5716L187.188 34.8428ZM188.598 35.752L188.212 36.6744L188.22 36.6775L188.598 35.752ZM195.074 34.8428L195.759 35.5716L195.764 35.5662L195.77 35.5607L195.074 34.8428ZM196.039 33.4883L195.136 33.0583L195.131 33.0678L196.039 33.4883ZM195.872 28.7383L196.732 28.229L195.872 28.7383ZM194.443 27.1982L193.854 28.0063L193.865 28.0143L194.443 27.1982ZM192.421 26.1035L192.049 27.032L192.054 27.0341L192.421 26.1035ZM187.801 24.2295L187.365 25.1299L187.371 25.1326L187.801 24.2295ZM185.797 22.8936L185.121 23.6308L185.129 23.6384L185.797 22.8936ZM184.331 14.9893L183.415 14.5884L183.409 14.6006L184.331 14.9893ZM187.819 11.5195L188.208 12.4409L188.215 12.4379L187.819 11.5195ZM194.629 11.5195L194.228 12.4358L194.24 12.4409L194.629 11.5195ZM198.098 14.9893L197.177 15.378L197.182 15.3901L198.098 14.9893ZM198.618 18.2178L198.779 19.2048L199.618 19.0681V18.2178H198.618ZM196.224 18.6074H195.224V19.7834L196.385 19.5944L196.224 18.6074ZM195.89 15.8799L194.971 16.2738L194.975 16.2819L195.89 15.8799ZM193.627 13.6162L193.225 14.5319L193.233 14.5354L193.627 13.6162ZM188.821 13.6162L188.427 12.697L188.419 12.7006L188.821 13.6162ZM187.467 14.5254L186.771 13.8072L186.765 13.8127L186.759 13.8183L187.467 14.5254ZM186.557 15.8799L187.473 16.2819L187.476 16.2738L186.557 15.8799ZM188.19 21.6875L187.612 22.5036L187.624 22.5115L188.19 21.6875ZM190.194 22.7637L189.809 23.6867L189.819 23.6906L189.828 23.6942L190.194 22.7637ZM192.513 23.6914L192.137 24.618L192.15 24.6229L192.513 23.6914ZM194.814 24.7305L194.355 25.6189L194.364 25.6234L194.373 25.6278L194.814 24.7305ZM196.837 26.1221L196.153 26.8517L196.161 26.8592L196.837 26.1221ZM197.803 31.8184C197.803 32.5796 197.648 33.2815 197.341 33.9359L199.152 34.7848C199.588 33.8559 199.803 32.8631 199.803 31.8184H197.803ZM197.336 33.9476C197.029 34.6251 196.614 35.2126 196.088 35.7171L197.474 37.1599C198.185 36.4768 198.747 35.6789 199.158 34.7731L197.336 33.9476ZM196.081 35.7241C195.568 36.2265 194.963 36.6283 194.257 36.9281L195.038 38.7692C195.964 38.3763 196.781 37.838 197.481 37.1528L196.081 35.7241ZM194.264 36.9251C193.586 37.2067 192.863 37.3496 192.087 37.3496V39.3496C193.116 39.3496 194.101 39.1585 195.031 38.7721L194.264 36.9251ZM192.087 37.3496H190.176V39.3496H192.087V37.3496ZM190.176 37.3496C189.399 37.3496 188.668 37.2067 187.975 36.9231L187.218 38.7742C188.157 39.1585 189.146 39.3496 190.176 39.3496V37.3496ZM187.992 36.9302C187.296 36.6302 186.685 36.2262 186.155 35.7171L184.77 37.1599C185.477 37.8383 186.289 38.3743 187.201 38.767L187.992 36.9302ZM186.162 35.7241C185.644 35.2165 185.224 34.6228 184.902 33.9359L183.091 34.7848C183.512 35.6813 184.069 36.473 184.763 37.1528L186.162 35.7241ZM184.908 33.9476C184.61 33.2907 184.459 32.5847 184.459 31.8184H182.459C182.459 32.858 182.666 33.8467 183.086 34.7731L184.908 33.9476ZM184.459 31.8184V30.7607H182.459V31.8184H184.459ZM183.619 31.7477L186.013 31.3581L185.692 29.3841L183.298 29.7737L183.619 31.7477ZM184.852 30.3711V31.8184H186.852V30.3711H184.852ZM184.852 31.8184C184.852 32.5482 184.998 33.246 185.294 33.9004L187.116 33.0761C186.942 32.6915 186.852 32.276 186.852 31.8184H184.852ZM185.306 33.9267C185.605 34.5389 186.001 35.0848 186.492 35.5607L187.884 34.1249C187.559 33.8091 187.3 33.452 187.104 33.0499L185.306 33.9267ZM186.504 35.5716C187.001 36.0394 187.573 36.407 188.212 36.6744L188.984 34.8295C188.56 34.6516 188.191 34.4131 187.873 34.1139L186.504 35.5716ZM188.22 36.6775C188.885 36.9498 189.583 37.0859 190.305 37.0859V35.0859C189.84 35.0859 189.4 34.9994 188.977 34.8264L188.22 36.6775ZM190.305 37.0859H191.975V35.0859H190.305V37.0859ZM191.975 37.0859C192.698 37.0859 193.392 36.9498 194.05 36.6744L193.278 34.8295C192.872 34.9994 192.441 35.0859 191.975 35.0859V37.0859ZM194.05 36.6744C194.689 36.407 195.261 36.0394 195.759 35.5716L194.389 34.1139C194.071 34.4131 193.703 34.6516 193.278 34.8295L194.05 36.6744ZM195.77 35.5607C196.265 35.081 196.659 34.5291 196.946 33.9087L195.131 33.0678C194.949 33.4618 194.7 33.8129 194.378 34.1249L195.77 35.5607ZM196.942 33.9182C197.255 33.26 197.41 32.556 197.41 31.8184H195.41C195.41 32.2682 195.317 32.6775 195.136 33.0583L196.942 33.9182ZM197.41 31.8184V31.0205H195.41V31.8184H197.41ZM197.41 31.0205C197.41 29.9784 197.206 29.0289 196.732 28.229L195.011 29.2476C195.255 29.6599 195.41 30.2319 195.41 31.0205H197.41ZM196.732 28.229C196.3 27.4978 195.726 26.8813 195.021 26.3822L193.865 28.0143C194.348 28.3564 194.726 28.7665 195.011 29.2476L196.732 28.229ZM195.032 26.3902C194.363 25.9022 193.612 25.4978 192.787 25.1729L192.054 27.0341C192.738 27.303 193.336 27.6284 193.854 28.0062L195.032 26.3902ZM192.792 25.175C192.043 24.8753 191.269 24.5758 190.471 24.2766L189.769 26.1492C190.554 26.4437 191.314 26.738 192.049 27.032L192.792 25.175ZM190.471 24.2766C189.706 23.9895 188.959 23.6728 188.23 23.3264L187.371 25.1326C188.152 25.5037 188.951 25.8425 189.769 26.1492L190.471 24.2766ZM188.236 23.3291C187.575 23.0097 186.986 22.6161 186.464 22.1487L185.129 23.6384C185.795 24.2348 186.542 24.7318 187.365 25.1298L188.236 23.3291ZM186.472 22.1564C185.983 21.7077 185.583 21.1566 185.276 20.4901L183.46 21.3263C183.87 22.2184 184.423 22.9909 185.121 23.6307L186.472 22.1564ZM185.276 20.4901C184.994 19.8773 184.83 19.0708 184.83 18.0322H182.83C182.83 19.2697 183.024 20.3805 183.46 21.3263L185.276 20.4901ZM184.83 18.0322V17.5312H182.83V18.0322H184.83ZM184.83 17.5312C184.83 16.7549 184.973 16.0404 185.252 15.378L183.409 14.6006C183.021 15.5215 182.83 16.5017 182.83 17.5312H184.83ZM185.247 15.3901C185.545 14.7093 185.945 14.1212 186.448 13.6182L185.034 12.204C184.349 12.8885 183.809 13.6859 183.415 14.5884L185.247 15.3901ZM186.448 13.6182C186.948 13.1179 187.532 12.7259 188.208 12.4409L187.43 10.5982C186.523 10.9811 185.721 11.5168 185.034 12.204L186.448 13.6182ZM188.215 12.4379C188.89 12.1471 189.608 12 190.38 12V10C189.345 10 188.356 10.1992 187.423 10.6011L188.215 12.4379ZM190.38 12H192.087V10H190.38V12ZM192.087 12C192.858 12 193.568 12.1471 194.228 12.4357L195.029 10.6034C194.106 10.1992 193.121 10 192.087 10V12ZM194.24 12.4409C194.915 12.7259 195.499 13.1179 196 13.6182L197.414 12.204C196.727 11.5168 195.925 10.9811 195.017 10.5982L194.24 12.4409ZM196 13.6182C196.5 14.1185 196.892 14.7024 197.177 15.378L199.02 14.6006C198.637 13.6927 198.101 12.8912 197.414 12.204L196 13.6182ZM197.182 15.3901C197.471 16.0497 197.618 16.7599 197.618 17.5312H199.618C199.618 16.4966 199.419 15.5122 199.015 14.5884L197.182 15.3901ZM197.618 17.5312V18.2178H199.618V17.5312H197.618ZM198.457 17.2308L196.064 17.6204L196.385 19.5944L198.779 19.2048L198.457 17.2308ZM197.224 18.6074V17.5312H195.224V18.6074H197.224ZM197.224 17.5312C197.224 16.8092 197.088 16.1207 196.806 15.4779L194.975 16.2819C195.138 16.6534 195.224 17.0658 195.224 17.5312H197.224ZM196.809 15.486C196.539 14.8545 196.165 14.2955 195.688 13.8183L194.274 15.2325C194.564 15.5222 194.797 15.8662 194.971 16.2738L196.809 15.486ZM195.688 13.8183C195.211 13.3411 194.652 12.9677 194.021 12.6971L193.233 14.5354C193.64 14.7101 193.984 14.9428 194.274 15.2325L195.688 13.8183ZM194.029 12.7006C193.386 12.4184 192.697 12.2822 191.975 12.2822V14.2822C192.441 14.2822 192.853 14.3688 193.225 14.5319L194.029 12.7006ZM191.975 12.2822H190.491V14.2822H191.975V12.2822ZM190.491 12.2822C189.769 12.2822 189.077 12.4184 188.427 12.6971L189.215 14.5354C189.604 14.3687 190.026 14.2822 190.491 14.2822V12.2822ZM188.419 12.7006C187.804 12.9708 187.252 13.3405 186.771 13.8072L188.162 15.2436C188.472 14.9433 188.824 14.7069 189.223 14.5319L188.419 12.7006ZM186.759 13.8183C186.282 14.2955 185.909 14.8545 185.638 15.486L187.476 16.2738C187.651 15.8662 187.884 15.5222 188.174 15.2325L186.759 13.8183ZM185.642 15.4779C185.359 16.1207 185.223 16.8092 185.223 17.5312H187.223C187.223 17.0658 187.31 16.6534 187.473 16.2819L185.642 15.4779ZM185.223 17.5312V18.0322H187.223V17.5312H185.223ZM185.223 18.0322C185.223 19.0252 185.433 19.9354 185.91 20.7097L187.612 19.6595C187.373 19.2709 187.223 18.7463 187.223 18.0322H185.223ZM185.91 20.7097C186.344 21.4127 186.916 22.0104 187.612 22.5035L188.768 20.8715C188.277 20.5234 187.896 20.1192 187.612 19.6595L185.91 20.7097ZM187.624 22.5115C188.281 22.9632 189.011 23.3539 189.809 23.6867L190.579 21.8406C189.893 21.555 189.287 21.2282 188.757 20.8635L187.624 22.5115ZM189.828 23.6942C190.579 23.9897 191.349 24.2976 192.137 24.6179L192.89 22.7649C192.095 22.442 191.318 22.1314 190.56 21.8331L189.828 23.6942ZM192.15 24.6229C192.909 24.9197 193.644 25.2517 194.355 25.6189L195.273 23.842C194.5 23.4423 193.701 23.0816 192.877 22.7599L192.15 24.6229ZM194.373 25.6278C195.042 25.9567 195.633 26.3648 196.153 26.8516L197.521 25.3925C196.852 24.766 196.096 24.2464 195.255 23.8331L194.373 25.6278ZM196.161 26.8592C196.648 27.3053 197.047 27.8601 197.354 28.5387L199.176 27.7132C198.766 26.8085 198.213 26.0274 197.512 25.3849L196.161 26.8592ZM197.354 28.5387C197.639 29.1672 197.803 29.9827 197.803 31.0205H199.803C199.803 29.7822 199.609 28.6681 199.176 27.7132L197.354 28.5387ZM197.803 31.0205V31.8184H199.803V31.0205H197.803Z" fill="url(#paint1_linear_115_98)"/>
<defs>
<linearGradient id="paint0_linear_115_98" x1="174.824" y1="11.298" x2="168.81" y2="54.7048" gradientUnits="userSpaceOnUse">
<stop stop-color="#14D8E4"/>
<stop offset="1" stop-color="#527FCA"/>
</linearGradient>
<linearGradient id="paint1_linear_115_98" x1="174.824" y1="11.298" x2="168.81" y2="54.7048" gradientUnits="userSpaceOnUse">
<stop stop-color="#14D8E4"/>
<stop offset="1" stop-color="#527FCA"/>
</linearGradient>
</defs>
</svg>
