<svg width="212" height="47" viewBox="0 0 212 47" fill="none" xmlns="http://www.w3.org/2000/svg">
<path d="M3.04297 37V10.3926H5.43652V37H3.04297ZM26.125 30.8398C26.125 31.7428 25.9518 32.5902 25.6055 33.3818C25.2715 34.1735 24.8076 34.8662 24.2139 35.46C23.6201 36.0537 22.9274 36.5238 22.1357 36.8701C21.3441 37.2041 20.4967 37.3711 19.5938 37.3711H17.7012C16.7982 37.3711 15.9447 37.2041 15.1406 36.8701C14.349 36.5238 13.6562 36.0537 13.0625 35.46C12.4688 34.8662 11.9987 34.1735 11.6523 33.3818C11.3184 32.5902 11.1514 31.7428 11.1514 30.8398V16.5527C11.1514 15.6497 11.3184 14.8024 11.6523 14.0107C11.9987 13.2191 12.4688 12.5264 13.0625 11.9326C13.6562 11.3389 14.349 10.875 15.1406 10.541C15.9447 10.1947 16.7982 10.0215 17.7012 10.0215H19.5938C20.4967 10.0215 21.3441 10.1947 22.1357 10.541C22.9274 10.875 23.6201 11.3389 24.2139 11.9326C24.8076 12.5264 25.2715 13.2191 25.6055 14.0107C25.9518 14.8024 26.125 15.6497 26.125 16.5527V17.6289L23.7314 18V16.5527C23.7314 15.959 23.6201 15.4085 23.3975 14.9014C23.1748 14.3818 22.8717 13.9303 22.4883 13.5469C22.1048 13.1634 21.6533 12.8604 21.1338 12.6377C20.6266 12.415 20.0762 12.3037 19.4824 12.3037H17.8125C17.2188 12.3037 16.6621 12.415 16.1426 12.6377C15.6354 12.8604 15.1839 13.1634 14.7881 13.5469C14.4046 13.9303 14.1016 14.3818 13.8789 14.9014C13.6562 15.4085 13.5449 15.959 13.5449 16.5527V30.8398C13.5449 31.4336 13.6562 31.9902 13.8789 32.5098C14.1016 33.0169 14.4046 33.4684 14.7881 33.8643C15.1839 34.2477 15.6354 34.5508 16.1426 34.7734C16.6621 34.9961 17.2188 35.1074 17.8125 35.1074H19.4824C20.0762 35.1074 20.6266 34.9961 21.1338 34.7734C21.6533 34.5508 22.1048 34.2477 22.4883 33.8643C22.8717 33.4684 23.1748 33.0169 23.3975 32.5098C23.6201 31.9902 23.7314 31.4336 23.7314 30.8398V29.3926L26.125 29.7822V30.8398ZM31.4688 37V10.3926H46.4424V12.6748H33.8623V22.5645H44.0488V24.8467H33.8623V34.7178H46.4424V37H31.4688ZM63.5312 37L56.3135 25.6445H53.0293V37H50.6357V10.3926H59.0781C59.9811 10.3926 60.8285 10.5658 61.6201 10.9121C62.4118 11.2461 63.1045 11.71 63.6982 12.3037C64.292 12.8975 64.7559 13.5964 65.0898 14.4004C65.4362 15.1921 65.6094 16.0394 65.6094 16.9424V19.0947C65.6094 19.9977 65.4362 20.8512 65.0898 21.6553C64.7559 22.4469 64.292 23.1396 63.6982 23.7334C63.1045 24.3271 62.4118 24.7972 61.6201 25.1436C60.8285 25.4775 59.9811 25.6445 59.0781 25.6445L66.2959 37H63.5312ZM63.2158 16.9424C63.2158 16.3486 63.1045 15.7982 62.8818 15.291C62.6592 14.7715 62.3561 14.32 61.9727 13.9365C61.5892 13.5407 61.1377 13.2314 60.6182 13.0088C60.111 12.7861 59.5605 12.6748 58.9668 12.6748H53.0293V23.3623H58.9668C59.5605 23.3623 60.111 23.251 60.6182 23.0283C61.1377 22.8057 61.5892 22.5026 61.9727 22.1191C62.3561 21.7233 62.6592 21.2718 62.8818 20.7646C63.1045 20.2451 63.2158 19.6885 63.2158 19.0947V16.9424ZM85.8525 20.2451C85.8525 21.1481 85.6794 21.9954 85.333 22.7871C84.999 23.5788 84.5352 24.2715 83.9414 24.8652C83.3477 25.459 82.6488 25.929 81.8447 26.2754C81.0531 26.6094 80.2057 26.7764 79.3027 26.7764H73.2725V37H70.8789V10.3926H79.3027C80.2057 10.3926 81.0531 10.5658 81.8447 10.9121C82.6488 11.2461 83.3477 11.71 83.9414 12.3037C84.5352 12.8975 84.999 13.5964 85.333 14.4004C85.6794 15.1921 85.8525 16.0394 85.8525 16.9424V20.2451ZM83.459 16.9424C83.459 16.3486 83.3477 15.7982 83.125 15.291C82.9023 14.7715 82.5931 14.32 82.1973 13.9365C81.8138 13.5407 81.3623 13.2314 80.8428 13.0088C80.3356 12.7861 79.7852 12.6748 79.1914 12.6748H73.2725V24.4941H79.1914C79.7852 24.4941 80.3356 24.3828 80.8428 24.1602C81.3623 23.9375 81.8138 23.6344 82.1973 23.251C82.5931 22.8675 82.9023 22.4222 83.125 21.915C83.3477 21.3955 83.459 20.8389 83.459 20.2451V16.9424ZM105.02 30.8398C105.02 31.7428 104.846 32.5902 104.5 33.3818C104.166 34.1735 103.702 34.8662 103.108 35.46C102.515 36.0537 101.822 36.5238 101.03 36.8701C100.239 37.2041 99.3913 37.3711 98.4883 37.3711H96.5957C95.6927 37.3711 94.8392 37.2041 94.0352 36.8701C93.2435 36.5238 92.5508 36.0537 91.957 35.46C91.3633 34.8662 90.8932 34.1735 90.5469 33.3818C90.2129 32.5902 90.0459 31.7428 90.0459 30.8398V16.5527C90.0459 15.6497 90.2129 14.8024 90.5469 14.0107C90.8932 13.2191 91.3633 12.5264 91.957 11.9326C92.5508 11.3389 93.2435 10.875 94.0352 10.541C94.8392 10.1947 95.6927 10.0215 96.5957 10.0215H98.4883C99.3913 10.0215 100.239 10.1947 101.03 10.541C101.822 10.875 102.515 11.3389 103.108 11.9326C103.702 12.5264 104.166 13.2191 104.5 14.0107C104.846 14.8024 105.02 15.6497 105.02 16.5527V17.6289L102.626 18V16.5527C102.626 15.959 102.515 15.4085 102.292 14.9014C102.069 14.3818 101.766 13.9303 101.383 13.5469C100.999 13.1634 100.548 12.8604 100.028 12.6377C99.5212 12.415 98.9707 12.3037 98.377 12.3037H96.707C96.1133 12.3037 95.5566 12.415 95.0371 12.6377C94.5299 12.8604 94.0785 13.1634 93.6826 13.5469C93.2992 13.9303 92.9961 14.3818 92.7734 14.9014C92.5508 15.4085 92.4395 15.959 92.4395 16.5527V30.8398C92.4395 31.4336 92.5508 31.9902 92.7734 32.5098C92.9961 33.0169 93.2992 33.4684 93.6826 33.8643C94.0785 34.2477 94.5299 34.5508 95.0371 34.7734C95.5566 34.9961 96.1133 35.1074 96.707 35.1074H98.377C98.9707 35.1074 99.5212 34.9961 100.028 34.7734C100.548 34.5508 100.999 34.2477 101.383 33.8643C101.766 33.4684 102.069 33.0169 102.292 32.5098C102.515 31.9902 102.626 31.4336 102.626 30.8398V29.3926L105.02 29.7822V30.8398Z" fill="white"/>
<path d="M136.017 30.4688C136.017 31.3717 135.843 32.2191 135.497 33.0107C135.163 33.8024 134.699 34.4951 134.105 35.0889C133.512 35.6826 132.813 36.1527 132.009 36.499C131.217 36.833 130.37 37 129.467 37H121.043V10.3926H129.467C130.37 10.3926 131.217 10.5658 132.009 10.9121C132.813 11.2461 133.512 11.71 134.105 12.3037C134.699 12.8975 135.163 13.5964 135.497 14.4004C135.843 15.1921 136.017 16.0394 136.017 16.9424V30.4688ZM133.623 16.9424C133.623 16.3486 133.512 15.7982 133.289 15.291C133.066 14.7715 132.757 14.32 132.361 13.9365C131.978 13.5407 131.526 13.2314 131.007 13.0088C130.5 12.7861 129.949 12.6748 129.355 12.6748H123.437V34.7178H129.355C129.949 34.7178 130.5 34.6064 131.007 34.3838C131.526 34.1611 131.978 33.8581 132.361 33.4746C132.757 33.0911 133.066 32.6458 133.289 32.1387C133.512 31.6191 133.623 31.0625 133.623 30.4688V16.9424ZM157.057 30.8398C157.057 31.7428 156.884 32.5902 156.537 33.3818C156.203 34.1735 155.739 34.8662 155.146 35.46C154.552 36.0537 153.859 36.5238 153.068 36.8701C152.276 37.2041 151.429 37.3711 150.526 37.3711H148.633C147.73 37.3711 146.877 37.2041 146.073 36.8701C145.281 36.5238 144.588 36.0537 143.994 35.46C143.401 34.8662 142.931 34.1735 142.584 33.3818C142.25 32.5902 142.083 31.7428 142.083 30.8398V16.5527C142.083 15.6497 142.25 14.8024 142.584 14.0107C142.931 13.2191 143.401 12.5264 143.994 11.9326C144.588 11.3389 145.281 10.875 146.073 10.541C146.877 10.1947 147.73 10.0215 148.633 10.0215H150.526C151.429 10.0215 152.276 10.1947 153.068 10.541C153.859 10.875 154.552 11.3389 155.146 11.9326C155.739 12.5264 156.203 13.2191 156.537 14.0107C156.884 14.8024 157.057 15.6497 157.057 16.5527V30.8398ZM154.663 16.5527C154.663 15.959 154.552 15.4085 154.329 14.9014C154.107 14.3818 153.804 13.9303 153.42 13.5469C153.037 13.1634 152.585 12.8604 152.066 12.6377C151.559 12.415 151.008 12.3037 150.414 12.3037H148.744C148.151 12.3037 147.594 12.415 147.074 12.6377C146.567 12.8604 146.116 13.1634 145.72 13.5469C145.336 13.9303 145.033 14.3818 144.811 14.9014C144.588 15.4085 144.477 15.959 144.477 16.5527V30.8398C144.477 31.4336 144.588 31.9902 144.811 32.5098C145.033 33.0169 145.336 33.4684 145.72 33.8643C146.116 34.2477 146.567 34.5508 147.074 34.7734C147.594 34.9961 148.151 35.1074 148.744 35.1074H150.414C151.008 35.1074 151.559 34.9961 152.066 34.7734C152.585 34.5508 153.037 34.2477 153.42 33.8643C153.804 33.4684 154.107 33.0169 154.329 32.5098C154.552 31.9902 154.663 31.4336 154.663 30.8398V16.5527ZM178.116 30.8398C178.116 31.7428 177.943 32.5902 177.596 33.3818C177.262 34.1735 176.798 34.8662 176.205 35.46C175.611 36.0537 174.918 36.5238 174.126 36.8701C173.335 37.2041 172.487 37.3711 171.584 37.3711H169.692C168.789 37.3711 167.935 37.2041 167.131 36.8701C166.34 36.5238 165.647 36.0537 165.053 35.46C164.459 34.8662 163.989 34.1735 163.643 33.3818C163.309 32.5902 163.142 31.7428 163.142 30.8398V16.5527C163.142 15.6497 163.309 14.8024 163.643 14.0107C163.989 13.2191 164.459 12.5264 165.053 11.9326C165.647 11.3389 166.34 10.875 167.131 10.541C167.935 10.1947 168.789 10.0215 169.692 10.0215H171.584C172.487 10.0215 173.335 10.1947 174.126 10.541C174.918 10.875 175.611 11.3389 176.205 11.9326C176.798 12.5264 177.262 13.2191 177.596 14.0107C177.943 14.8024 178.116 15.6497 178.116 16.5527V17.6289L175.722 18V16.5527C175.722 15.959 175.611 15.4085 175.388 14.9014C175.166 14.3818 174.862 13.9303 174.479 13.5469C174.096 13.1634 173.644 12.8604 173.124 12.6377C172.617 12.415 172.067 12.3037 171.473 12.3037H169.803C169.209 12.3037 168.653 12.415 168.133 12.6377C167.626 12.8604 167.175 13.1634 166.779 13.5469C166.395 13.9303 166.092 14.3818 165.87 14.9014C165.647 15.4085 165.536 15.959 165.536 16.5527V30.8398C165.536 31.4336 165.647 31.9902 165.87 32.5098C166.092 33.0169 166.395 33.4684 166.779 33.8643C167.175 34.2477 167.626 34.5508 168.133 34.7734C168.653 34.9961 169.209 35.1074 169.803 35.1074H171.473C172.067 35.1074 172.617 34.9961 173.124 34.7734C173.644 34.5508 174.096 34.2477 174.479 33.8643C174.862 33.4684 175.166 33.0169 175.388 32.5098C175.611 31.9902 175.722 31.4336 175.722 30.8398V29.3926L178.116 29.7822V30.8398ZM198.803 30.8398C198.803 31.7428 198.618 32.5902 198.247 33.3818C197.888 34.1735 197.399 34.8662 196.781 35.46C196.175 36.0537 195.464 36.5238 194.647 36.8701C193.843 37.2041 192.99 37.3711 192.087 37.3711H190.176C189.273 37.3711 188.413 37.2041 187.596 36.8701C186.792 36.5238 186.081 36.0537 185.463 35.46C184.856 34.8662 184.368 34.1735 183.997 33.3818C183.638 32.5902 183.459 31.7428 183.459 30.8398V29.7822L185.852 29.3926V30.8398C185.852 31.4336 185.97 31.9902 186.205 32.5098C186.452 33.0169 186.78 33.4684 187.188 33.8643C187.596 34.2477 188.066 34.5508 188.598 34.7734C189.143 34.9961 189.712 35.1074 190.305 35.1074H191.975C192.569 35.1074 193.132 34.9961 193.664 34.7734C194.196 34.5508 194.666 34.2477 195.074 33.8643C195.482 33.4684 195.804 33.0169 196.039 32.5098C196.286 31.9902 196.41 31.4336 196.41 30.8398V30.042C196.41 29.1266 196.231 28.3659 195.872 27.7598C195.513 27.1536 195.037 26.6403 194.443 26.2197C193.849 25.7868 193.175 25.4219 192.421 25.125C191.678 24.8281 190.912 24.5312 190.12 24.2344C189.328 23.9375 188.555 23.6097 187.801 23.251C187.058 22.8923 186.39 22.4469 185.797 21.915C185.203 21.3708 184.727 20.709 184.368 19.9297C184.009 19.1504 183.83 18.1917 183.83 17.0537V16.5527C183.83 15.6497 183.997 14.8024 184.331 14.0107C184.677 13.2191 185.147 12.5264 185.741 11.9326C186.335 11.3389 187.027 10.875 187.819 10.541C188.623 10.1947 189.477 10.0215 190.38 10.0215H192.087C192.99 10.0215 193.837 10.1947 194.629 10.541C195.42 10.875 196.113 11.3389 196.707 11.9326C197.301 12.5264 197.764 13.2191 198.098 14.0107C198.445 14.8024 198.618 15.6497 198.618 16.5527V17.2393L196.224 17.6289V16.5527C196.224 15.959 196.113 15.4085 195.89 14.9014C195.668 14.3818 195.365 13.9303 194.981 13.5469C194.598 13.1634 194.146 12.8604 193.627 12.6377C193.12 12.415 192.569 12.3037 191.975 12.3037H190.491C189.897 12.3037 189.341 12.415 188.821 12.6377C188.314 12.8604 187.862 13.1634 187.467 13.5469C187.083 13.9303 186.78 14.3818 186.557 14.9014C186.335 15.4085 186.223 15.959 186.223 16.5527V17.0537C186.223 17.9072 186.403 18.6247 186.761 19.2061C187.12 19.7874 187.596 20.2884 188.19 20.709C188.784 21.1172 189.452 21.4759 190.194 21.7852C190.949 22.082 191.722 22.3913 192.513 22.7129C193.305 23.0221 194.072 23.3685 194.814 23.752C195.569 24.123 196.243 24.5869 196.837 25.1436C197.43 25.6878 197.907 26.3558 198.265 27.1475C198.624 27.9391 198.803 28.904 198.803 30.042V30.8398Z" fill="url(#paint0_linear_115_97)"/>
<path d="M135.497 33.0107L134.581 32.6099L134.576 32.622L135.497 33.0107ZM132.009 36.499L132.398 37.4204L132.404 37.4174L132.009 36.499ZM121.043 37H120.043V38H121.043V37ZM121.043 10.3926V9.39258H120.043V10.3926H121.043ZM132.009 10.9121L131.608 11.8283L131.617 11.832L131.625 11.8356L132.009 10.9121ZM135.497 14.4004L134.574 14.784L134.577 14.7926L134.581 14.8012L135.497 14.4004ZM133.289 15.291L132.37 15.685L132.373 15.693L133.289 15.291ZM132.361 13.9365L131.643 14.6323L131.654 14.6437L131.666 14.6548L132.361 13.9365ZM131.007 13.0088L130.605 13.9245L130.613 13.9279L131.007 13.0088ZM123.437 12.6748V11.6748H122.437V12.6748H123.437ZM123.437 34.7178H122.437V35.7178H123.437V34.7178ZM131.007 34.3838L130.613 33.4646L130.605 33.4681L131.007 34.3838ZM132.361 33.4746L131.666 32.7564L131.66 32.7619L131.654 32.7675L132.361 33.4746ZM133.289 32.1387L134.205 32.5407L134.208 32.5326L133.289 32.1387ZM135.017 30.4688C135.017 31.2401 134.869 31.9503 134.581 32.6099L136.413 33.4116C136.817 32.4878 137.017 31.5034 137.017 30.4688H135.017ZM134.576 32.622C134.291 33.2976 133.899 33.8815 133.398 34.3818L134.813 35.796C135.5 35.1088 136.035 34.3073 136.418 33.3994L134.576 32.622ZM133.398 34.3818C132.898 34.8822 132.306 35.2822 131.613 35.5806L132.404 37.4174C133.32 37.0232 134.126 36.483 134.813 35.796L133.398 34.3818ZM131.62 35.5777C130.958 35.8571 130.243 36 129.467 36V38C130.496 38 131.477 37.8089 132.397 37.4204L131.62 35.5777ZM129.467 36H121.043V38H129.467V36ZM122.043 37V10.3926H120.043V37H122.043ZM121.043 11.3926H129.467V9.39258H121.043V11.3926ZM129.467 11.3926C130.238 11.3926 130.948 11.5397 131.608 11.8283L132.41 9.99595C131.486 9.59182 130.501 9.39258 129.467 9.39258V11.3926ZM131.625 11.8356C132.313 12.1212 132.901 12.5131 133.398 13.0108L134.813 11.5966C134.123 10.9068 133.313 10.371 132.392 9.98861L131.625 11.8356ZM133.398 13.0108C133.896 13.5085 134.288 14.0964 134.574 14.784L136.421 14.0168C136.038 13.0963 135.502 12.2864 134.813 11.5966L133.398 13.0108ZM134.581 14.8012C134.869 15.4608 135.017 16.171 135.017 16.9424H137.017C137.017 15.9078 136.817 14.9233 136.413 13.9996L134.581 14.8012ZM135.017 16.9424V30.4688H137.017V16.9424H135.017ZM134.623 16.9424C134.623 16.2203 134.487 15.5318 134.205 14.889L132.373 15.693C132.537 16.0645 132.623 16.4769 132.623 16.9424H134.623ZM134.208 14.8971C133.935 14.2589 133.551 13.6964 133.057 13.2183L131.666 14.6548C131.964 14.9436 132.198 15.2841 132.37 15.6849L134.208 14.8971ZM133.08 13.2407C132.601 12.7472 132.039 12.3631 131.401 12.0896L130.613 13.9279C131.014 14.0997 131.354 14.3342 131.643 14.6323L133.08 13.2407ZM131.409 12.0931C130.766 11.8109 130.078 11.6748 129.355 11.6748V13.6748C129.821 13.6748 130.233 13.7613 130.605 13.9244L131.409 12.0931ZM129.355 11.6748H123.437V13.6748H129.355V11.6748ZM122.437 12.6748V34.7178H124.437V12.6748H122.437ZM123.437 35.7178H129.355V33.7178H123.437V35.7178ZM129.355 35.7178C130.078 35.7178 130.766 35.5816 131.409 35.2994L130.605 33.4681C130.233 33.6312 129.821 33.7178 129.355 33.7178V35.7178ZM131.401 35.3029C132.032 35.0323 132.591 34.6589 133.068 34.1817L131.654 32.7675C131.365 33.0572 131.021 33.2899 130.613 33.4646L131.401 35.3029ZM133.057 34.1928C133.547 33.7187 133.93 33.1659 134.205 32.5407L132.373 31.7367C132.203 32.1258 131.968 32.4635 131.666 32.7564L133.057 34.1928ZM134.208 32.5326C134.487 31.8823 134.623 31.191 134.623 30.4688H132.623C132.623 30.934 132.537 31.3559 132.37 31.7448L134.208 32.5326ZM134.623 30.4688V16.9424H132.623V30.4688H134.623ZM156.537 33.3818L155.621 32.981L155.616 32.9931L156.537 33.3818ZM153.068 36.8701L153.456 37.7916L153.468 37.7863L153.068 36.8701ZM146.073 36.8701L145.672 37.7863L145.68 37.79L145.689 37.7936L146.073 36.8701ZM142.584 33.3818L141.663 33.7706L141.668 33.7827L142.584 33.3818ZM142.584 14.0107L141.668 13.6099L141.663 13.622L142.584 14.0107ZM146.073 10.541L146.461 11.4624L146.468 11.4594L146.073 10.541ZM153.068 10.541L152.667 11.4573L152.679 11.4624L153.068 10.541ZM156.537 14.0107L155.616 14.3995L155.621 14.4116L156.537 14.0107ZM154.329 14.9014L153.41 15.2953L153.414 15.3034L154.329 14.9014ZM152.066 12.6377L151.664 13.5534L151.672 13.5568L152.066 12.6377ZM147.074 12.6377L146.681 11.7185L146.672 11.7221L147.074 12.6377ZM145.72 13.5469L145.024 12.8286L145.018 12.8342L145.013 12.8398L145.72 13.5469ZM144.811 14.9014L145.726 15.3034L145.73 15.2953L144.811 14.9014ZM144.811 32.5098L143.892 32.9037L143.895 32.9118L144.811 32.5098ZM145.72 33.8643L145.002 34.5601L145.013 34.5715L145.024 34.5825L145.72 33.8643ZM147.074 34.7734L146.672 35.6891L146.681 35.6926L147.074 34.7734ZM152.066 34.7734L151.672 33.8543L151.664 33.8578L152.066 34.7734ZM153.42 33.8643L154.127 34.5714L154.133 34.5658L154.138 34.5601L153.42 33.8643ZM154.329 32.5098L155.245 32.9118L155.248 32.9037L154.329 32.5098ZM156.057 30.8398C156.057 31.6112 155.91 32.3214 155.621 32.981L157.454 33.7827C157.858 32.8589 158.057 31.8745 158.057 30.8398H156.057ZM155.616 32.9931C155.331 33.6687 154.939 34.2526 154.439 34.7529L155.853 36.1671C156.54 35.4799 157.076 34.6783 157.459 33.7705L155.616 32.9931ZM154.439 34.7529C153.936 35.2559 153.348 35.6561 152.667 35.954L153.468 37.7863C154.371 37.3914 155.168 36.8516 155.853 36.1671L154.439 34.7529ZM152.679 35.9488C152.016 36.2282 151.302 36.3711 150.526 36.3711V38.3711C151.555 38.3711 152.535 38.18 153.456 37.7915L152.679 35.9488ZM150.526 36.3711H148.633V38.3711H150.526V36.3711ZM148.633 36.3711C147.857 36.3711 147.134 36.2282 146.456 35.9466L145.689 37.7936C146.619 38.18 147.603 38.3711 148.633 38.3711V36.3711ZM146.473 35.954C145.793 35.6561 145.204 35.2559 144.701 34.7529L143.287 36.1671C143.972 36.8516 144.769 37.3914 145.672 37.7863L146.473 35.954ZM144.701 34.7529C144.198 34.2499 143.798 33.6618 143.5 32.981L141.668 33.7827C142.063 34.6852 142.603 35.4826 143.287 36.1671L144.701 34.7529ZM143.506 32.9931C143.226 32.3307 143.083 31.6162 143.083 30.8398H141.083C141.083 31.8694 141.274 32.8496 141.663 33.7705L143.506 32.9931ZM143.083 30.8398V16.5527H141.083V30.8398H143.083ZM143.083 16.5527C143.083 15.7763 143.226 15.0619 143.506 14.3994L141.663 13.622C141.274 14.5429 141.083 15.5231 141.083 16.5527H143.083ZM143.5 14.4116C143.798 13.7307 144.198 13.1427 144.701 12.6397L143.287 11.2255C142.603 11.91 142.063 12.7074 141.668 13.6099L143.5 14.4116ZM144.701 12.6397C145.202 12.1394 145.786 11.7474 146.461 11.4624L145.684 9.61965C144.776 10.0026 143.974 10.5383 143.287 11.2255L144.701 12.6397ZM146.468 11.4594C147.143 11.1686 147.862 11.0215 148.633 11.0215V9.02148C147.598 9.02148 146.61 9.22072 145.677 9.6226L146.468 11.4594ZM148.633 11.0215H150.526V9.02148H148.633V11.0215ZM150.526 11.0215C151.297 11.0215 152.007 11.1686 152.667 11.4572L153.468 9.62486C152.545 9.22072 151.56 9.02148 150.526 9.02148V11.0215ZM152.679 11.4624C153.354 11.7474 153.938 12.1394 154.439 12.6397L155.853 11.2255C155.166 10.5383 154.364 10.0026 153.456 9.61965L152.679 11.4624ZM154.439 12.6397C154.939 13.14 155.331 13.7239 155.616 14.3994L157.459 13.622C157.076 12.7142 156.54 11.9127 155.853 11.2255L154.439 12.6397ZM155.621 14.4116C155.91 15.0712 156.057 15.7814 156.057 16.5527H158.057C158.057 15.5181 157.858 14.5337 157.454 13.6099L155.621 14.4116ZM156.057 16.5527V30.8398H158.057V16.5527H156.057ZM155.663 16.5527C155.663 15.8307 155.527 15.1422 155.245 14.4994L153.414 15.3034C153.577 15.6749 153.663 16.0873 153.663 16.5527H155.663ZM155.248 14.5074C154.978 13.876 154.604 13.317 154.127 12.8398L152.713 14.254C153.003 14.5437 153.235 14.8877 153.41 15.2953L155.248 14.5074ZM154.127 12.8398C153.65 12.3626 153.091 11.9892 152.46 11.7186L151.672 13.5568C152.079 13.7315 152.423 13.9643 152.713 14.254L154.127 12.8398ZM152.468 11.7221C151.825 11.4398 151.136 11.3037 150.414 11.3037V13.3037C150.88 13.3037 151.292 13.3902 151.664 13.5533L152.468 11.7221ZM150.414 11.3037H148.744V13.3037H150.414V11.3037ZM148.744 11.3037C148.022 11.3037 147.331 11.4399 146.681 11.7186L147.468 13.5568C147.857 13.3902 148.279 13.3037 148.744 13.3037V11.3037ZM146.672 11.7221C146.057 11.9923 145.506 12.362 145.024 12.8286L146.416 14.2651C146.726 13.9648 147.078 13.7284 147.476 13.5533L146.672 11.7221ZM145.013 12.8398C144.536 13.317 144.162 13.876 143.892 14.5074L145.73 15.2953C145.905 14.8877 146.137 14.5437 146.427 14.254L145.013 12.8398ZM143.895 14.4994C143.613 15.1422 143.477 15.8307 143.477 16.5527H145.477C145.477 16.0873 145.563 15.6749 145.726 15.3034L143.895 14.4994ZM143.477 16.5527V30.8398H145.477V16.5527H143.477ZM143.477 30.8398C143.477 31.5621 143.613 32.2534 143.892 32.9037L145.73 32.1158C145.563 31.727 145.477 31.3051 145.477 30.8398H143.477ZM143.895 32.9118C144.165 33.5273 144.535 34.0784 145.002 34.5601L146.438 33.1685C146.138 32.8585 145.902 32.5066 145.726 32.1078L143.895 32.9118ZM145.024 34.5825C145.506 35.0491 146.057 35.4189 146.672 35.6891L147.476 33.8578C147.078 33.6827 146.726 33.4463 146.416 33.146L145.024 34.5825ZM146.681 35.6926C147.331 35.9713 148.022 36.1074 148.744 36.1074V34.1074C148.279 34.1074 147.857 34.0209 147.468 33.8543L146.681 35.6926ZM148.744 36.1074H150.414V34.1074H148.744V36.1074ZM150.414 36.1074C151.136 36.1074 151.825 35.9713 152.468 35.6891L151.664 33.8578C151.292 34.0209 150.88 34.1074 150.414 34.1074V36.1074ZM152.46 35.6926C153.091 35.422 153.65 35.0486 154.127 34.5714L152.713 33.1572C152.423 33.4469 152.079 33.6796 151.672 33.8543L152.46 35.6926ZM154.138 34.5601C154.605 34.0784 154.975 33.5273 155.245 32.9118L153.414 32.1078C153.239 32.5066 153.002 32.8585 152.702 33.1685L154.138 34.5601ZM155.248 32.9037C155.527 32.2534 155.663 31.5621 155.663 30.8398H153.663C153.663 31.3051 153.577 31.727 153.41 32.1158L155.248 32.9037ZM155.663 30.8398V16.5527H153.663V30.8398H155.663ZM177.596 33.3818L176.68 32.981L176.675 32.9931L177.596 33.3818ZM174.126 36.8701L174.515 37.7916L174.527 37.7863L174.126 36.8701ZM167.131 36.8701L166.731 37.7863L166.739 37.79L166.748 37.7936L167.131 36.8701ZM163.643 33.3818L162.722 33.7706L162.727 33.7827L163.643 33.3818ZM163.643 14.0107L162.727 13.6099L162.722 13.622L163.643 14.0107ZM167.131 10.541L167.52 11.4624L167.527 11.4594L167.131 10.541ZM174.126 10.541L173.726 11.4573L173.738 11.4624L174.126 10.541ZM177.596 14.0107L176.675 14.3995L176.68 14.4116L177.596 14.0107ZM178.116 17.6289L178.269 18.6171L179.116 18.4858V17.6289H178.116ZM175.722 18H174.722V19.167L175.875 18.9882L175.722 18ZM175.388 14.9014L174.469 15.2953L174.473 15.3034L175.388 14.9014ZM173.124 12.6377L172.722 13.5534L172.731 13.5568L173.124 12.6377ZM168.133 12.6377L167.739 11.7185L167.731 11.7221L168.133 12.6377ZM166.779 13.5469L166.083 12.8286L166.077 12.8342L166.072 12.8398L166.779 13.5469ZM165.87 14.9014L166.785 15.3034L166.789 15.2953L165.87 14.9014ZM165.87 32.5098L164.95 32.9037L164.954 32.9118L165.87 32.5098ZM166.779 33.8643L166.061 34.5601L166.072 34.5715L166.083 34.5825L166.779 33.8643ZM168.133 34.7734L167.731 35.6891L167.739 35.6926L168.133 34.7734ZM173.124 34.7734L172.731 33.8543L172.723 33.8578L173.124 34.7734ZM174.479 33.8643L175.186 34.5714L175.192 34.5658L175.197 34.5601L174.479 33.8643ZM175.388 32.5098L176.304 32.9118L176.307 32.9037L175.388 32.5098ZM175.722 29.3926L175.883 28.4056L174.722 28.2166V29.3926H175.722ZM178.116 29.7822H179.116V28.9319L178.276 28.7952L178.116 29.7822ZM177.116 30.8398C177.116 31.6112 176.969 32.3214 176.68 32.981L178.512 33.7827C178.916 32.8589 179.116 31.8745 179.116 30.8398H177.116ZM176.675 32.9931C176.39 33.6687 175.998 34.2526 175.497 34.7529L176.912 36.1671C177.599 35.4799 178.135 34.6783 178.518 33.7705L176.675 32.9931ZM175.497 34.7529C174.994 35.2559 174.406 35.6561 173.726 35.954L174.527 37.7863C175.43 37.3914 176.227 36.8516 176.912 36.1671L175.497 34.7529ZM173.738 35.9488C173.075 36.2282 172.361 36.3711 171.584 36.3711V38.3711C172.614 38.3711 173.594 38.18 174.515 37.7915L173.738 35.9488ZM171.584 36.3711H169.692V38.3711H171.584V36.3711ZM169.692 36.3711C168.916 36.3711 168.193 36.2282 167.515 35.9466L166.748 37.7936C167.678 38.18 168.662 38.3711 169.692 38.3711V36.3711ZM167.532 35.954C166.851 35.6561 166.263 35.2559 165.76 34.7529L164.346 36.1671C165.031 36.8516 165.828 37.3914 166.731 37.7863L167.532 35.954ZM165.76 34.7529C165.257 34.2499 164.857 33.6618 164.559 32.981L162.727 33.7827C163.122 34.6852 163.662 35.4826 164.346 36.1671L165.76 34.7529ZM164.564 32.9931C164.285 32.3307 164.142 31.6162 164.142 30.8398H162.142C162.142 31.8694 162.333 32.8496 162.722 33.7705L164.564 32.9931ZM164.142 30.8398V16.5527H162.142V30.8398H164.142ZM164.142 16.5527C164.142 15.7763 164.285 15.0619 164.564 14.3994L162.722 13.622C162.333 14.5429 162.142 15.5231 162.142 16.5527H164.142ZM164.559 14.4116C164.857 13.7307 165.257 13.1427 165.76 12.6397L164.346 11.2255C163.662 11.91 163.122 12.7074 162.727 13.6099L164.559 14.4116ZM165.76 12.6397C166.261 12.1394 166.845 11.7474 167.52 11.4624L166.743 9.61965C165.835 10.0026 165.033 10.5383 164.346 11.2255L165.76 12.6397ZM167.527 11.4594C168.202 11.1686 168.921 11.0215 169.692 11.0215V9.02148C168.657 9.02148 167.669 9.22072 166.736 9.6226L167.527 11.4594ZM169.692 11.0215H171.584V9.02148H169.692V11.0215ZM171.584 11.0215C172.356 11.0215 173.066 11.1686 173.726 11.4572L174.527 9.62486C173.604 9.22072 172.619 9.02148 171.584 9.02148V11.0215ZM173.738 11.4624C174.413 11.7474 174.997 12.1394 175.497 12.6397L176.912 11.2255C176.224 10.5383 175.423 10.0026 174.515 9.61965L173.738 11.4624ZM175.497 12.6397C175.998 13.14 176.39 13.7239 176.675 14.3994L178.518 13.622C178.135 12.7142 177.599 11.9127 176.912 11.2255L175.497 12.6397ZM176.68 14.4116C176.969 15.0712 177.116 15.7814 177.116 16.5527H179.116C179.116 15.5181 178.916 14.5337 178.512 13.6099L176.68 14.4116ZM177.116 16.5527V17.6289H179.116V16.5527H177.116ZM177.962 16.6407L175.569 17.0118L175.875 18.9882L178.269 18.6171L177.962 16.6407ZM176.722 18V16.5527H174.722V18H176.722ZM176.722 16.5527C176.722 15.8307 176.586 15.1422 176.304 14.4994L174.473 15.3034C174.636 15.6749 174.722 16.0873 174.722 16.5527H176.722ZM176.307 14.5074C176.037 13.876 175.663 13.317 175.186 12.8398L173.772 14.254C174.062 14.5437 174.294 14.8877 174.469 15.2953L176.307 14.5074ZM175.186 12.8398C174.709 12.3626 174.15 11.9892 173.518 11.7186L172.731 13.5568C173.138 13.7315 173.482 13.9643 173.772 14.254L175.186 12.8398ZM173.526 11.7221C172.884 11.4398 172.195 11.3037 171.473 11.3037V13.3037C171.939 13.3037 172.351 13.3902 172.723 13.5533L173.526 11.7221ZM171.473 11.3037H169.803V13.3037H171.473V11.3037ZM169.803 11.3037C169.081 11.3037 168.39 11.4399 167.739 11.7186L168.527 13.5568C168.916 13.3902 169.338 13.3037 169.803 13.3037V11.3037ZM167.731 11.7221C167.116 11.9923 166.565 12.362 166.083 12.8286L167.475 14.2651C167.785 13.9648 168.136 13.7284 168.535 13.5533L167.731 11.7221ZM166.072 12.8398C165.594 13.317 165.221 13.876 164.95 14.5074L166.789 15.2953C166.963 14.8877 167.196 14.5437 167.486 14.254L166.072 12.8398ZM164.954 14.4994C164.672 15.1422 164.536 15.8307 164.536 16.5527H166.536C166.536 16.0873 166.622 15.6749 166.785 15.3034L164.954 14.4994ZM164.536 16.5527V30.8398H166.536V16.5527H164.536ZM164.536 30.8398C164.536 31.5621 164.672 32.2534 164.95 32.9037L166.789 32.1158C166.622 31.727 166.536 31.3051 166.536 30.8398H164.536ZM164.954 32.9118C165.224 33.5273 165.594 34.0784 166.061 34.5601L167.497 33.1685C167.197 32.8585 166.96 32.5066 166.785 32.1078L164.954 32.9118ZM166.083 34.5825C166.565 35.0491 167.116 35.4189 167.731 35.6891L168.535 33.8578C168.136 33.6827 167.785 33.4463 167.475 33.146L166.083 34.5825ZM167.739 35.6926C168.39 35.9713 169.081 36.1074 169.803 36.1074V34.1074C169.338 34.1074 168.916 34.0209 168.527 33.8543L167.739 35.6926ZM169.803 36.1074H171.473V34.1074H169.803V36.1074ZM171.473 36.1074C172.195 36.1074 172.884 35.9713 173.526 35.6891L172.723 33.8578C172.351 34.0209 171.939 34.1074 171.473 34.1074V36.1074ZM173.518 35.6926C174.15 35.422 174.709 35.0486 175.186 34.5714L173.772 33.1572C173.482 33.4469 173.138 33.6796 172.731 33.8543L173.518 35.6926ZM175.197 34.5601C175.664 34.0784 176.034 33.5273 176.304 32.9118L174.473 32.1078C174.297 32.5066 174.061 32.8585 173.761 33.1685L175.197 34.5601ZM176.307 32.9037C176.586 32.2534 176.722 31.5621 176.722 30.8398H174.722C174.722 31.3051 174.636 31.727 174.469 32.1158L176.307 32.9037ZM176.722 30.8398V29.3926H174.722V30.8398H176.722ZM175.561 30.3796L177.955 30.7692L178.276 28.7952L175.883 28.4056L175.561 30.3796ZM177.116 29.7822V30.8398H179.116V29.7822H177.116ZM198.247 33.3818L197.341 32.9574L197.336 32.9691L198.247 33.3818ZM196.781 35.46L196.088 34.7385L196.081 34.7456L196.781 35.46ZM194.647 36.8701L195.031 37.7936L195.038 37.7907L194.647 36.8701ZM187.596 36.8701L187.201 37.7885L187.209 37.7922L187.218 37.7957L187.596 36.8701ZM185.463 35.46L184.763 36.1744L184.77 36.1813L185.463 35.46ZM183.997 33.3818L183.086 33.7946L183.091 33.8063L183.997 33.3818ZM183.459 29.7822L183.298 28.7952L182.459 28.9319V29.7822H183.459ZM185.852 29.3926H186.852V28.2166L185.692 28.4056L185.852 29.3926ZM186.205 32.5098L185.294 32.9219L185.3 32.9352L185.306 32.9482L186.205 32.5098ZM187.188 33.8643L186.492 34.5822L186.498 34.5877L186.504 34.5931L187.188 33.8643ZM188.598 34.7734L188.212 35.6959L188.22 35.699L188.598 34.7734ZM195.074 33.8643L195.759 34.5931L195.764 34.5877L195.77 34.5822L195.074 33.8643ZM196.039 32.5098L195.136 32.0798L195.131 32.0893L196.039 32.5098ZM195.872 27.7598L196.732 27.2504L195.872 27.7598ZM194.443 26.2197L193.854 27.0278L193.865 27.0358L194.443 26.2197ZM192.421 25.125L192.049 26.0535L192.054 26.0556L192.421 25.125ZM187.801 23.251L187.365 24.1513L187.371 24.1541L187.801 23.251ZM185.797 21.915L185.121 22.6522L185.129 22.6599L185.797 21.915ZM184.331 14.0107L183.415 13.6099L183.409 13.622L184.331 14.0107ZM187.819 10.541L188.208 11.4624L188.215 11.4594L187.819 10.541ZM194.629 10.541L194.228 11.4573L194.24 11.4624L194.629 10.541ZM198.098 14.0107L197.177 14.3995L197.182 14.4116L198.098 14.0107ZM198.618 17.2393L198.779 18.2263L199.618 18.0896V17.2393H198.618ZM196.224 17.6289H195.224V18.8049L196.385 18.6159L196.224 17.6289ZM195.89 14.9014L194.971 15.2953L194.975 15.3034L195.89 14.9014ZM193.627 12.6377L193.225 13.5534L193.233 13.5568L193.627 12.6377ZM188.821 12.6377L188.427 11.7185L188.419 11.7221L188.821 12.6377ZM187.467 13.5469L186.771 12.8286L186.765 12.8342L186.759 12.8398L187.467 13.5469ZM186.557 14.9014L187.473 15.3034L187.476 15.2953L186.557 14.9014ZM188.19 20.709L187.612 21.5251L187.624 21.533L188.19 20.709ZM190.194 21.7852L189.809 22.7082L189.819 22.7121L189.828 22.7157L190.194 21.7852ZM192.513 22.7129L192.137 23.6394L192.15 23.6443L192.513 22.7129ZM194.814 23.752L194.355 24.6404L194.364 24.6449L194.373 24.6493L194.814 23.752ZM196.837 25.1436L196.153 25.8731L196.161 25.8807L196.837 25.1436ZM197.803 30.8398C197.803 31.6011 197.648 32.303 197.341 32.9574L199.152 33.8063C199.588 32.8774 199.803 31.8846 199.803 30.8398H197.803ZM197.336 32.9691C197.029 33.6466 196.614 34.2341 196.088 34.7386L197.474 36.1813C198.185 35.4983 198.747 34.7004 199.158 33.7946L197.336 32.9691ZM196.081 34.7456C195.568 35.248 194.963 35.6498 194.257 35.9495L195.038 37.7907C195.964 37.3978 196.781 36.8595 197.481 36.1743L196.081 34.7456ZM194.264 35.9466C193.586 36.2282 192.863 36.3711 192.087 36.3711V38.3711C193.116 38.3711 194.101 38.18 195.031 37.7936L194.264 35.9466ZM192.087 36.3711H190.176V38.3711H192.087V36.3711ZM190.176 36.3711C189.399 36.3711 188.668 36.2282 187.975 35.9446L187.218 37.7957C188.157 38.18 189.146 38.3711 190.176 38.3711V36.3711ZM187.992 35.9517C187.296 35.6517 186.685 35.2476 186.155 34.7386L184.77 36.1813C185.477 36.8598 186.289 37.3958 187.201 37.7885L187.992 35.9517ZM186.162 34.7456C185.644 34.238 185.224 33.6443 184.902 32.9574L183.091 33.8063C183.512 34.7027 184.069 35.4944 184.763 36.1743L186.162 34.7456ZM184.908 32.9691C184.61 32.3122 184.459 31.6062 184.459 30.8398H182.459C182.459 31.8795 182.666 32.8682 183.086 33.7946L184.908 32.9691ZM184.459 30.8398V29.7822H182.459V30.8398H184.459ZM183.619 30.7692L186.013 30.3796L185.692 28.4056L183.298 28.7952L183.619 30.7692ZM184.852 29.3926V30.8398H186.852V29.3926H184.852ZM184.852 30.8398C184.852 31.5697 184.998 32.2675 185.294 32.9219L187.116 32.0976C186.942 31.7129 186.852 31.2975 186.852 30.8398H184.852ZM185.306 32.9482C185.605 33.5604 186.001 34.1062 186.492 34.5822L187.884 33.1464C187.559 32.8306 187.3 32.4735 187.104 32.0713L185.306 32.9482ZM186.504 34.5931C187.001 35.0609 187.573 35.4284 188.212 35.6959L188.984 33.851C188.56 33.6731 188.191 33.4346 187.873 33.1354L186.504 34.5931ZM188.22 35.699C188.885 35.9713 189.583 36.1074 190.305 36.1074V34.1074C189.84 34.1074 189.4 34.0209 188.977 33.8479L188.22 35.699ZM190.305 36.1074H191.975V34.1074H190.305V36.1074ZM191.975 36.1074C192.698 36.1074 193.392 35.9713 194.05 35.6959L193.278 33.851C192.872 34.0209 192.441 34.1074 191.975 34.1074V36.1074ZM194.05 35.6959C194.689 35.4284 195.261 35.0609 195.759 34.5931L194.389 33.1354C194.071 33.4346 193.703 33.6731 193.278 33.851L194.05 35.6959ZM195.77 34.5822C196.265 34.1025 196.659 33.5506 196.946 32.9302L195.131 32.0893C194.949 32.4833 194.7 32.8344 194.378 33.1464L195.77 34.5822ZM196.942 32.9397C197.255 32.2815 197.41 31.5775 197.41 30.8398H195.41C195.41 31.2897 195.317 31.6989 195.136 32.0798L196.942 32.9397ZM197.41 30.8398V30.042H195.41V30.8398H197.41ZM197.41 30.042C197.41 28.9999 197.206 28.0504 196.732 27.2504L195.011 28.2691C195.255 28.6813 195.41 29.2533 195.41 30.042H197.41ZM196.732 27.2504C196.3 26.5193 195.726 25.9028 195.021 25.4037L193.865 27.0358C194.348 27.3778 194.726 27.788 195.011 28.2691L196.732 27.2504ZM195.032 25.4117C194.363 24.9237 193.612 24.5193 192.787 24.1944L192.054 26.0556C192.738 26.3244 193.336 26.6499 193.854 27.0277L195.032 25.4117ZM192.792 24.1965C192.043 23.8968 191.269 23.5973 190.471 23.298L189.769 25.1707C190.554 25.4652 191.314 25.7594 192.049 26.0535L192.792 24.1965ZM190.471 23.298C189.706 23.011 188.959 22.6943 188.23 22.3478L187.371 24.1541C188.152 24.5251 188.951 24.864 189.769 25.1707L190.471 23.298ZM188.236 22.3506C187.575 22.0312 186.986 21.6376 186.464 21.1702L185.129 22.6599C185.795 23.2563 186.542 23.7533 187.365 24.1513L188.236 22.3506ZM186.472 21.1779C185.983 20.7292 185.583 20.1781 185.276 19.5115L183.46 20.3478C183.87 21.2399 184.423 22.0124 185.121 22.6522L186.472 21.1779ZM185.276 19.5115C184.994 18.8988 184.83 18.0923 184.83 17.0537H182.83C182.83 18.2912 183.024 19.402 183.46 20.3478L185.276 19.5115ZM184.83 17.0537V16.5527H182.83V17.0537H184.83ZM184.83 16.5527C184.83 15.7763 184.973 15.0619 185.252 14.3994L183.409 13.622C183.021 14.5429 182.83 15.5231 182.83 16.5527H184.83ZM185.247 14.4116C185.545 13.7307 185.945 13.1427 186.448 12.6397L185.034 11.2255C184.349 11.91 183.809 12.7074 183.415 13.6099L185.247 14.4116ZM186.448 12.6397C186.948 12.1394 187.532 11.7474 188.208 11.4624L187.43 9.61965C186.523 10.0026 185.721 10.5383 185.034 11.2255L186.448 12.6397ZM188.215 11.4594C188.89 11.1686 189.608 11.0215 190.38 11.0215V9.02148C189.345 9.02148 188.356 9.22072 187.423 9.6226L188.215 11.4594ZM190.38 11.0215H192.087V9.02148H190.38V11.0215ZM192.087 11.0215C192.858 11.0215 193.568 11.1686 194.228 11.4572L195.029 9.62486C194.106 9.22072 193.121 9.02148 192.087 9.02148V11.0215ZM194.24 11.4624C194.915 11.7474 195.499 12.1394 196 12.6397L197.414 11.2255C196.727 10.5383 195.925 10.0026 195.017 9.61965L194.24 11.4624ZM196 12.6397C196.5 13.14 196.892 13.7239 197.177 14.3994L199.02 13.622C198.637 12.7142 198.101 11.9127 197.414 11.2255L196 12.6397ZM197.182 14.4116C197.471 15.0712 197.618 15.7814 197.618 16.5527H199.618C199.618 15.5181 199.419 14.5337 199.015 13.6099L197.182 14.4116ZM197.618 16.5527V17.2393H199.618V16.5527H197.618ZM198.457 16.2523L196.064 16.6419L196.385 18.6159L198.779 18.2263L198.457 16.2523ZM197.224 17.6289V16.5527H195.224V17.6289H197.224ZM197.224 16.5527C197.224 15.8307 197.088 15.1422 196.806 14.4994L194.975 15.3034C195.138 15.6749 195.224 16.0873 195.224 16.5527H197.224ZM196.809 14.5074C196.539 13.876 196.165 13.317 195.688 12.8398L194.274 14.254C194.564 14.5437 194.797 14.8877 194.971 15.2953L196.809 14.5074ZM195.688 12.8398C195.211 12.3626 194.652 11.9892 194.021 11.7186L193.233 13.5568C193.64 13.7315 193.984 13.9643 194.274 14.254L195.688 12.8398ZM194.029 11.7221C193.386 11.4398 192.697 11.3037 191.975 11.3037V13.3037C192.441 13.3037 192.853 13.3902 193.225 13.5533L194.029 11.7221ZM191.975 11.3037H190.491V13.3037H191.975V11.3037ZM190.491 11.3037C189.769 11.3037 189.077 11.4399 188.427 11.7186L189.215 13.5568C189.604 13.3902 190.026 13.3037 190.491 13.3037V11.3037ZM188.419 11.7221C187.804 11.9923 187.252 12.362 186.771 12.8286L188.162 14.2651C188.472 13.9648 188.824 13.7284 189.223 13.5533L188.419 11.7221ZM186.759 12.8398C186.282 13.317 185.909 13.876 185.638 14.5074L187.476 15.2953C187.651 14.8877 187.884 14.5437 188.174 14.254L186.759 12.8398ZM185.642 14.4994C185.359 15.1422 185.223 15.8307 185.223 16.5527H187.223C187.223 16.0873 187.31 15.6749 187.473 15.3034L185.642 14.4994ZM185.223 16.5527V17.0537H187.223V16.5527H185.223ZM185.223 17.0537C185.223 18.0467 185.433 18.9569 185.91 19.7312L187.612 18.6809C187.373 18.2924 187.223 17.7677 187.223 17.0537H185.223ZM185.91 19.7312C186.344 20.4342 186.916 21.0319 187.612 21.525L188.768 19.893C188.277 19.5449 187.896 19.1407 187.612 18.6809L185.91 19.7312ZM187.624 21.533C188.281 21.9847 189.011 22.3754 189.809 22.7082L190.579 20.8621C189.893 20.5764 189.287 20.2497 188.757 19.8849L187.624 21.533ZM189.828 22.7157C190.579 23.0112 191.349 23.3191 192.137 23.6394L192.89 21.7864C192.095 21.4635 191.318 21.1529 190.56 20.8546L189.828 22.7157ZM192.15 23.6443C192.909 23.9411 193.644 24.2732 194.355 24.6404L195.273 22.8635C194.5 22.4638 193.701 22.1031 192.877 21.7814L192.15 23.6443ZM194.373 24.6493C195.042 24.9782 195.633 25.3863 196.153 25.8731L197.521 24.414C196.852 23.7875 196.096 23.2679 195.255 22.8546L194.373 24.6493ZM196.161 25.8807C196.648 26.3268 197.047 26.8816 197.354 27.5602L199.176 26.7347C198.766 25.83 198.213 25.0489 197.512 24.4064L196.161 25.8807ZM197.354 27.5602C197.639 28.1887 197.803 29.0042 197.803 30.042H199.803C199.803 28.8037 199.609 27.6896 199.176 26.7347L197.354 27.5602ZM197.803 30.042V30.8398H199.803V30.042H197.803Z" fill="url(#paint1_linear_115_97)"/>
<defs>
<linearGradient id="paint0_linear_115_97" x1="174.824" y1="10.3194" x2="168.81" y2="53.7263" gradientUnits="userSpaceOnUse">
<stop stop-color="#14D8E4"/>
<stop offset="1" stop-color="#527FCA"/>
</linearGradient>
<linearGradient id="paint1_linear_115_97" x1="174.824" y1="10.3194" x2="168.81" y2="53.7263" gradientUnits="userSpaceOnUse">
<stop stop-color="#14D8E4"/>
<stop offset="1" stop-color="#527FCA"/>
</linearGradient>
</defs>
</svg>
