<svg width="18" height="18" viewBox="0 0 18 18" fill="none" xmlns="http://www.w3.org/2000/svg">
    <path
        d="M2.43172 17.4629L2.43183 17.463L2.43807 17.4568L15.7313 4.16355V13C15.7313 13.2652 15.8366 13.5196 16.0242 13.7071C16.2117 13.8946 16.4661 14 16.7313 14C16.9965 14 17.2509 13.8946 17.4384 13.7071C17.6259 13.5196 17.7313 13.2652 17.7313 13V1.75C17.7313 1.48478 17.6259 1.23043 17.4384 1.04289C17.2509 0.855356 16.9965 0.75 16.7313 0.75H5.48129C5.21608 0.75 4.96172 0.855357 4.77418 1.04289C4.58665 1.23043 4.48129 1.48478 4.48129 1.75C4.48129 2.01522 4.58665 2.26957 4.77418 2.45711C4.96172 2.64464 5.21608 2.75 5.48129 2.75H14.3177L1.02452 16.0432L1.02441 16.0431L1.01839 16.0496C0.841749 16.2391 0.745585 16.4899 0.750156 16.7489C0.754727 17.008 0.859676 17.2552 1.04289 17.4384C1.22611 17.6216 1.47329 17.7266 1.73236 17.7311C1.99143 17.7357 2.24216 17.6395 2.43172 17.4629Z"
        fill="#1671F1" stroke="#1671F1" stroke-width="0.5" />
</svg>
