<svg width="816" height="816" viewBox="0 0 816 816" fill="none" xmlns="http://www.w3.org/2000/svg">
<g clip-path="url(#clip0_317_76)">
<circle cx="408" cy="408" r="408" fill="#FAFAFA"/>
<path d="M305.489 197.055L89.7373 536.965C84.6734 544.943 93.6982 554.363 101.886 549.645L529.318 303.363C535.732 299.668 535.231 290.253 528.462 287.259L316.781 193.631C312.688 191.821 307.887 193.277 305.489 197.055Z" fill="url(#paint0_linear_317_76)"/>
<path d="M507.215 617.675L344.441 481.352C339.626 477.319 340.287 469.727 345.728 466.588L716.039 252.948C724.099 248.297 733.081 257.388 728.335 265.392L520.798 615.355C517.954 620.151 511.489 621.255 507.215 617.675Z" fill="url(#paint1_linear_317_76)"/>
</g>
<defs>
<linearGradient id="paint0_linear_317_76" x1="150.63" y1="379.364" x2="492.101" y2="379.364" gradientUnits="userSpaceOnUse">
<stop stop-color="#06B6D4"/>
<stop offset="1" stop-color="#3B82F6"/>
<stop offset="1" stop-color="#3B82F6"/>
</linearGradient>
<linearGradient id="paint1_linear_317_76" x1="639.701" y1="430.099" x2="381.999" y2="497.916" gradientUnits="userSpaceOnUse">
<stop stop-color="#8DEBFF"/>
<stop offset="1" stop-color="#50D5FF"/>
</linearGradient>
<clipPath id="clip0_317_76">
<rect width="816" height="816" fill="white"/>
</clipPath>
</defs>
</svg>
